M48
; DRILL file KiCad 10.0.6 date 2026-09-29T11:56:36
; FORMAT={-:-/ absolute / metric / decimal}
; #@! TF.CreationDate,2026-09-29T11:56:36+02:00
; #@! TF.GenerationSoftware,Kicad,Pcbnew,10.0.6
; #@! TF.FileFunction,Plated,1,4,PTH
FMAT,2
METRIC
; #@! TA.AperFunction,Plated,PTH,ViaDrill
T1C0.300
; #@! TA.AperFunction,Plated,PTH,ViaDrill
T2C0.400
; #@! TA.AperFunction,Plated,PTH,ComponentDrill
T3C1.000
; #@! TA.AperFunction,Plated,PTH,ComponentDrill
T4C1.300
%
G90
G05
T1
X127.8Y-95.462
X128.75Y-93.188
X129.0Y-100.8
X129.35Y-102.25
X133.2Y-96.775
X134.5Y-96.5
X135.2Y-89.075
X135.5Y-92.6
X136.5Y-82.5
X137.0Y-96.5
X139.2Y-98.475
X140.575Y-92.425
X140.6Y-84.9
X142.8Y-78.0
X146.3Y-98.15
X146.9Y-99.4
X147.3Y-96.65
X148.3Y-101.7
X149.4Y-100.6
X150.0Y-96.6
X151.112Y-97.5
X151.775Y-90.0
X154.375Y-97.825
X155.0Y-93.6
X155.9Y-86.3
X156.8Y-99.0
X157.25Y-102.15
X159.55Y-100.137
X159.75Y-102.445
X160.5Y-97.862
X175.2Y-96.8
X178.8Y-97.8
X179.3Y-88.9
T2
X125.5Y-97.25
X125.75Y-100.5
X125.75Y-107.5
X127.25Y-91.25
X128.25Y-105.0
X128.75Y-97.25
X130.75Y-92.25
X130.8Y-104.25
X131.25Y-87.0
X131.75Y-99.75
X132.0Y-90.25
X132.25Y-63.0
X132.25Y-65.5
X132.25Y-70.25
X132.25Y-72.75
X132.25Y-101.25
X133.5Y-99.75
X133.75Y-85.25
X133.75Y-104.25
X134.15Y-67.75
X135.75Y-87.75
X136.5Y-80.0
X137.0Y-91.25
X138.4Y-80.0
X138.5Y-82.5
X139.25Y-87.75
X140.05Y-82.5
X141.75Y-95.0
X141.75Y-97.0
X142.75Y-85.25
X142.75Y-87.75
X144.75Y-78.0
X144.75Y-82.75
X145.5Y-87.0
X145.75Y-95.75
X147.25Y-75.75
X147.75Y-97.5
X147.75Y-98.75
X148.0Y-95.5
X148.75Y-93.0
X149.0Y-88.5
X149.0Y-90.0
X150.0Y-92.0
X151.0Y-69.0
X151.0Y-70.5
X151.0Y-76.25
X151.0Y-102.5
X151.0Y-104.0
X151.25Y-85.5
X151.25Y-94.5
X151.35Y-72.8
X152.25Y-79.75
X153.175Y-72.8
X153.5Y-69.0
X153.5Y-70.5
X153.5Y-88.0
X153.5Y-102.5
X153.5Y-104.0
X154.1Y-86.3
X156.0Y-97.75
X156.0Y-102.5
X156.0Y-104.0
X156.25Y-75.75
X156.25Y-94.25
X157.0Y-85.0
X157.0Y-87.75
X157.75Y-94.25
X157.75Y-97.75
X161.25Y-87.75
X161.5Y-85.0
X163.5Y-101.25
X164.25Y-84.75
X164.25Y-87.75
X165.0Y-103.0
X166.25Y-89.25
X166.5Y-84.75
X167.5Y-97.5
X167.5Y-100.25
X170.0Y-94.75
X170.25Y-97.75
X171.055Y-88.955
X171.75Y-67.7
X173.75Y-63.5
X173.75Y-65.25
X173.75Y-70.0
X173.75Y-72.0
T3
X120.65Y-60.96
X120.65Y-63.5
X120.65Y-66.04
X120.65Y-68.58
X120.65Y-71.12
X120.65Y-73.66
X120.65Y-76.2
X120.65Y-78.74
X120.65Y-81.28
X120.65Y-83.82
X120.65Y-86.36
X120.65Y-88.9
X120.65Y-91.44
X120.65Y-93.98
X120.65Y-96.52
X120.65Y-99.06
X120.65Y-101.6
X120.65Y-104.14
X120.65Y-106.68
X123.19Y-60.96
X123.19Y-63.5
X123.19Y-66.04
X123.19Y-68.58
X123.19Y-71.12
X123.19Y-73.66
X123.19Y-76.2
X123.19Y-78.74
X123.19Y-81.28
X123.19Y-83.82
X123.19Y-86.36
X123.19Y-88.9
X123.19Y-91.44
X123.19Y-93.98
X123.19Y-96.52
X123.19Y-99.06
X123.19Y-101.6
X123.19Y-104.14
X123.19Y-106.68
X181.61Y-60.96
X181.61Y-63.5
X181.61Y-66.04
X181.61Y-68.58
X181.61Y-71.12
X181.61Y-73.66
X181.61Y-76.2
X181.61Y-78.74
X181.61Y-81.28
X181.61Y-83.82
X181.61Y-86.36
X181.61Y-88.9
X181.61Y-91.44
X181.61Y-93.98
X181.61Y-96.52
X181.61Y-99.06
X181.61Y-101.6
X181.61Y-104.14
X181.61Y-106.68
X184.15Y-60.96
X184.15Y-63.5
X184.15Y-66.04
X184.15Y-68.58
X184.15Y-71.12
X184.15Y-73.66
X184.15Y-76.2
X184.15Y-78.74
X184.15Y-81.28
X184.15Y-83.82
X184.15Y-86.36
X184.15Y-88.9
X184.15Y-91.44
X184.15Y-93.98
X184.15Y-96.52
X184.15Y-99.06
X184.15Y-101.6
X184.15Y-104.14
X184.15Y-106.68
T4
X148.9Y-66.05
X152.4Y-66.05
X155.9Y-66.05
M30
