%TF.GenerationSoftware,KiCad,Pcbnew,10.0.6*%
%TF.CreationDate,2026-09-29T11:56:34+02:00*%
%TF.ProjectId,morpho64_shield,6d6f7270-686f-4363-945f-736869656c64,rev?*%
%TF.SameCoordinates,Original*%
%TF.FileFunction,Soldermask,Bot*%
%TF.FilePolarity,Negative*%
%FSLAX46Y46*%
G04 Gerber Fmt 4.6, Leading zero omitted, Abs format (unit mm)*
G04 Created by KiCad (PCBNEW 10.0.6) date 2026-09-29 11:56:34*
%MOMM*%
%LPD*%
G01*
G04 APERTURE LIST*
G04 Aperture macros list*
%AMRoundRect*
0 Rectangle with rounded corners*
0 $1 Rounding radius*
0 $2 $3 $4 $5 $6 $7 $8 $9 X,Y pos of 4 corners*
0 Add a 4 corners polygon primitive as box body*
4,1,4,$2,$3,$4,$5,$6,$7,$8,$9,$2,$3,0*
0 Add four circle primitives for the rounded corners*
1,1,$1+$1,$2,$3*
1,1,$1+$1,$4,$5*
1,1,$1+$1,$6,$7*
1,1,$1+$1,$8,$9*
0 Add four rect primitives between the rounded corners*
20,1,$1+$1,$2,$3,$4,$5,0*
20,1,$1+$1,$4,$5,$6,$7,0*
20,1,$1+$1,$6,$7,$8,$9,0*
20,1,$1+$1,$8,$9,$2,$3,0*%
G04 Aperture macros list end*
%ADD10RoundRect,0.200000X0.200000X0.275000X-0.200000X0.275000X-0.200000X-0.275000X0.200000X-0.275000X0*%
%ADD11RoundRect,0.250000X1.950000X0.700000X-1.950000X0.700000X-1.950000X-0.700000X1.950000X-0.700000X0*%
%ADD12R,1.700000X1.700000*%
%ADD13C,1.700000*%
%ADD14C,3.200000*%
%ADD15RoundRect,0.200000X0.275000X-0.200000X0.275000X0.200000X-0.275000X0.200000X-0.275000X-0.200000X0*%
%ADD16RoundRect,0.200000X-0.200000X-0.275000X0.200000X-0.275000X0.200000X0.275000X-0.200000X0.275000X0*%
%ADD17R,1.500000X5.080000*%
%ADD18RoundRect,0.225000X-0.250000X0.225000X-0.250000X-0.225000X0.250000X-0.225000X0.250000X0.225000X0*%
%ADD19RoundRect,0.150000X-0.150000X0.512500X-0.150000X-0.512500X0.150000X-0.512500X0.150000X0.512500X0*%
%ADD20R,1.250000X0.600000*%
%ADD21RoundRect,0.250000X0.250000X0.475000X-0.250000X0.475000X-0.250000X-0.475000X0.250000X-0.475000X0*%
%ADD22RoundRect,0.150000X-0.512500X-0.150000X0.512500X-0.150000X0.512500X0.150000X-0.512500X0.150000X0*%
%ADD23RoundRect,0.250000X-0.325000X-0.650000X0.325000X-0.650000X0.325000X0.650000X-0.325000X0.650000X0*%
%ADD24RoundRect,0.250000X-1.000000X-0.900000X1.000000X-0.900000X1.000000X0.900000X-1.000000X0.900000X0*%
%ADD25RoundRect,0.225000X0.225000X0.250000X-0.225000X0.250000X-0.225000X-0.250000X0.225000X-0.250000X0*%
%ADD26RoundRect,0.175000X0.175000X0.325000X-0.175000X0.325000X-0.175000X-0.325000X0.175000X-0.325000X0*%
%ADD27RoundRect,0.150000X0.200000X0.150000X-0.200000X0.150000X-0.200000X-0.150000X0.200000X-0.150000X0*%
%ADD28RoundRect,0.150000X0.587500X0.150000X-0.587500X0.150000X-0.587500X-0.150000X0.587500X-0.150000X0*%
%ADD29RoundRect,0.150000X0.512500X0.150000X-0.512500X0.150000X-0.512500X-0.150000X0.512500X-0.150000X0*%
%ADD30RoundRect,0.225000X-0.225000X-0.250000X0.225000X-0.250000X0.225000X0.250000X-0.225000X0.250000X0*%
%ADD31RoundRect,0.200000X-0.275000X0.200000X-0.275000X-0.200000X0.275000X-0.200000X0.275000X0.200000X0*%
%ADD32RoundRect,0.190000X-0.610000X-0.190000X0.610000X-0.190000X0.610000X0.190000X-0.610000X0.190000X0*%
%ADD33RoundRect,0.250000X1.050000X1.050000X-1.050000X1.050000X-1.050000X-1.050000X1.050000X-1.050000X0*%
%ADD34C,2.600000*%
%ADD35RoundRect,0.250000X-0.250000X-0.475000X0.250000X-0.475000X0.250000X0.475000X-0.250000X0.475000X0*%
%ADD36R,1.500000X2.200000*%
%ADD37RoundRect,0.225000X0.250000X-0.225000X0.250000X0.225000X-0.250000X0.225000X-0.250000X-0.225000X0*%
G04 APERTURE END LIST*
D10*
%TO.C,R3*%
X156025000Y-96200000D03*
X157675000Y-96200000D03*
%TD*%
D11*
%TO.C,C6*%
X171750000Y-67700000D03*
X163050000Y-67700000D03*
%TD*%
%TO.C,C5*%
X142850000Y-67750000D03*
X134150000Y-67750000D03*
%TD*%
D12*
%TO.C,J2*%
X184150000Y-60960000D03*
D13*
X181610000Y-60960000D03*
X184150000Y-63500000D03*
X181610000Y-63500000D03*
X184150000Y-66040000D03*
X181610000Y-66040000D03*
X184150000Y-68580000D03*
X181610000Y-68580000D03*
X184150000Y-71120000D03*
X181610000Y-71120000D03*
X184150000Y-73660000D03*
X181610000Y-73660000D03*
X184150000Y-76200000D03*
X181610000Y-76200000D03*
X184150000Y-78740000D03*
X181610000Y-78740000D03*
X184150000Y-81280000D03*
X181610000Y-81280000D03*
X184150000Y-83820000D03*
X181610000Y-83820000D03*
X184150000Y-86360000D03*
X181610000Y-86360000D03*
X184150000Y-88900000D03*
X181610000Y-88900000D03*
X184150000Y-91440000D03*
X181610000Y-91440000D03*
X184150000Y-93980000D03*
X181610000Y-93980000D03*
X184150000Y-96520000D03*
X181610000Y-96520000D03*
X184150000Y-99060000D03*
X181610000Y-99060000D03*
X184150000Y-101600000D03*
X181610000Y-101600000D03*
X184150000Y-104140000D03*
X181610000Y-104140000D03*
X184150000Y-106680000D03*
X181610000Y-106680000D03*
%TD*%
D14*
%TO.C,H3*%
X128270000Y-57150000D03*
%TD*%
%TO.C,H2*%
X176530000Y-58420000D03*
%TD*%
D12*
%TO.C,J1*%
X123190000Y-60960000D03*
D13*
X120650000Y-60960000D03*
X123190000Y-63500000D03*
X120650000Y-63500000D03*
X123190000Y-66040000D03*
X120650000Y-66040000D03*
X123190000Y-68580000D03*
X120650000Y-68580000D03*
X123190000Y-71120000D03*
X120650000Y-71120000D03*
X123190000Y-73660000D03*
X120650000Y-73660000D03*
X123190000Y-76200000D03*
X120650000Y-76200000D03*
X123190000Y-78740000D03*
X120650000Y-78740000D03*
X123190000Y-81280000D03*
X120650000Y-81280000D03*
X123190000Y-83820000D03*
X120650000Y-83820000D03*
X123190000Y-86360000D03*
X120650000Y-86360000D03*
X123190000Y-88900000D03*
X120650000Y-88900000D03*
X123190000Y-91440000D03*
X120650000Y-91440000D03*
X123190000Y-93980000D03*
X120650000Y-93980000D03*
X123190000Y-96520000D03*
X120650000Y-96520000D03*
X123190000Y-99060000D03*
X120650000Y-99060000D03*
X123190000Y-101600000D03*
X120650000Y-101600000D03*
X123190000Y-104140000D03*
X120650000Y-104140000D03*
X123190000Y-106680000D03*
X120650000Y-106680000D03*
%TD*%
D15*
%TO.C,R1*%
X161450000Y-103375000D03*
X161450000Y-101725000D03*
%TD*%
D14*
%TO.C,H4*%
X176500000Y-58500000D03*
%TD*%
D16*
%TO.C,R12*%
X138925000Y-90750000D03*
X140575000Y-90750000D03*
%TD*%
D17*
%TO.C,J5*%
X143000000Y-107050000D03*
X147250000Y-107050000D03*
X138750000Y-107050000D03*
%TD*%
D15*
%TO.C,R15*%
X143000000Y-99825000D03*
X143000000Y-98175000D03*
%TD*%
D18*
%TO.C,C25*%
X144750000Y-97975000D03*
X144750000Y-99525000D03*
%TD*%
D19*
%TO.C,U6*%
X127800000Y-93187500D03*
X128750000Y-93187500D03*
X129700000Y-93187500D03*
X129700000Y-95462500D03*
X127800000Y-95462500D03*
%TD*%
D18*
%TO.C,C23*%
X134400000Y-94075000D03*
X134400000Y-95625000D03*
%TD*%
D10*
%TO.C,R6*%
X154825000Y-89500000D03*
X153175000Y-89500000D03*
%TD*%
D20*
%TO.C,Q1*%
X137300000Y-90025000D03*
X135200000Y-89075000D03*
X135200000Y-90975000D03*
%TD*%
D15*
%TO.C,R9*%
X133500000Y-90850000D03*
X133500000Y-89200000D03*
%TD*%
D21*
%TO.C,C8*%
X138400000Y-82500000D03*
X136500000Y-82500000D03*
%TD*%
D22*
%TO.C,U5*%
X137162500Y-94475000D03*
X137162500Y-93525000D03*
X137162500Y-92575000D03*
X139437500Y-92575000D03*
X139437500Y-94475000D03*
%TD*%
D23*
%TO.C,C3*%
X148400000Y-72800000D03*
X151350000Y-72800000D03*
%TD*%
D17*
%TO.C,J3*%
X161500000Y-107050000D03*
X165750000Y-107050000D03*
X157250000Y-107050000D03*
%TD*%
D22*
%TO.C,U3*%
X151362500Y-92950000D03*
X151362500Y-92000000D03*
X151362500Y-91050000D03*
X153637500Y-91050000D03*
X153637500Y-92950000D03*
%TD*%
D20*
%TO.C,Q2*%
X138350000Y-96575000D03*
X138350000Y-98475000D03*
X136250000Y-97525000D03*
%TD*%
D24*
%TO.C,D2*%
X136400000Y-101650000D03*
X140700000Y-101650000D03*
%TD*%
D25*
%TO.C,C7*%
X138825000Y-76250000D03*
X140375000Y-76250000D03*
%TD*%
D26*
%TO.C,D1*%
X160050000Y-101750000D03*
D27*
X160050000Y-103450000D03*
X158050000Y-103450000D03*
X158050000Y-101550000D03*
%TD*%
D10*
%TO.C,R11*%
X135125000Y-92600000D03*
X133475000Y-92600000D03*
%TD*%
D28*
%TO.C,D3*%
X146437500Y-101050000D03*
X146437500Y-102950000D03*
X144562500Y-102000000D03*
%TD*%
D10*
%TO.C,R4*%
X152325000Y-100050000D03*
X150675000Y-100050000D03*
%TD*%
D29*
%TO.C,U4*%
X139362500Y-78050000D03*
X139362500Y-79000000D03*
X139362500Y-79950000D03*
X141637500Y-79950000D03*
X141637500Y-79000000D03*
X141637500Y-78050000D03*
%TD*%
D30*
%TO.C,C12*%
X125725000Y-99000000D03*
X127275000Y-99000000D03*
%TD*%
D31*
%TO.C,R13*%
X131500000Y-98575000D03*
X131500000Y-96925000D03*
%TD*%
D30*
%TO.C,C20*%
X152625000Y-94500000D03*
X154175000Y-94500000D03*
%TD*%
D32*
%TO.C,SW1*%
X172460000Y-97845000D03*
X172460000Y-96575000D03*
X172460000Y-95305000D03*
X172460000Y-94035000D03*
X172460000Y-92765000D03*
X172460000Y-91495000D03*
X172460000Y-90225000D03*
X172460000Y-88955000D03*
X177540000Y-88955000D03*
X177540000Y-90225000D03*
X177540000Y-91495000D03*
X177540000Y-92765000D03*
X177540000Y-94035000D03*
X177540000Y-95305000D03*
X177540000Y-96575000D03*
X177540000Y-97845000D03*
%TD*%
D10*
%TO.C,R5*%
X157575000Y-91900000D03*
X155925000Y-91900000D03*
%TD*%
D25*
%TO.C,C24*%
X149875000Y-102900000D03*
X148325000Y-102900000D03*
%TD*%
D33*
%TO.C,J4*%
X155900000Y-66050000D03*
D34*
X152400000Y-66050000D03*
X148900000Y-66050000D03*
%TD*%
D35*
%TO.C,C9*%
X140050000Y-82500000D03*
X141950000Y-82500000D03*
%TD*%
D19*
%TO.C,U1*%
X159550000Y-97862500D03*
X160500000Y-97862500D03*
X161450000Y-97862500D03*
X161450000Y-100137500D03*
X159550000Y-100137500D03*
%TD*%
D15*
%TO.C,R2*%
X163250000Y-99650000D03*
X163250000Y-98000000D03*
%TD*%
%TO.C,R10*%
X140050000Y-98350000D03*
X140050000Y-96700000D03*
%TD*%
D22*
%TO.C,U2*%
X151112500Y-98450000D03*
X151112500Y-97500000D03*
X151112500Y-96550000D03*
X153387500Y-96550000D03*
X153387500Y-98450000D03*
%TD*%
D31*
%TO.C,R14*%
X131500000Y-93675000D03*
X131500000Y-95325000D03*
%TD*%
D23*
%TO.C,C4*%
X153175000Y-72800000D03*
X156125000Y-72800000D03*
%TD*%
D36*
%TO.C,L1*%
X130500000Y-77500000D03*
X136900000Y-77500000D03*
%TD*%
D37*
%TO.C,C1*%
X164800000Y-99575000D03*
X164800000Y-98025000D03*
%TD*%
D14*
%TO.C,H1*%
X128250000Y-57250000D03*
%TD*%
M02*
