%TF.GenerationSoftware,KiCad,Pcbnew,10.0.6*%
%TF.CreationDate,2026-09-29T11:56:33+02:00*%
%TF.ProjectId,morpho64_shield,6d6f7270-686f-4363-945f-736869656c64,rev?*%
%TF.SameCoordinates,Original*%
%TF.FileFunction,Legend,Bot*%
%TF.FilePolarity,Positive*%
%FSLAX46Y46*%
G04 Gerber Fmt 4.6, Leading zero omitted, Abs format (unit mm)*
G04 Created by KiCad (PCBNEW 10.0.6) date 2026-09-29 11:56:33*
%MOMM*%
%LPD*%
G01*
G04 APERTURE LIST*
%ADD10C,0.150000*%
%ADD11C,0.254000*%
%ADD12C,0.120000*%
%ADD13C,0.200000*%
G04 APERTURE END LIST*
D10*
X157016666Y-95224819D02*
X157349999Y-94748628D01*
X157588094Y-95224819D02*
X157588094Y-94224819D01*
X157588094Y-94224819D02*
X157207142Y-94224819D01*
X157207142Y-94224819D02*
X157111904Y-94272438D01*
X157111904Y-94272438D02*
X157064285Y-94320057D01*
X157064285Y-94320057D02*
X157016666Y-94415295D01*
X157016666Y-94415295D02*
X157016666Y-94558152D01*
X157016666Y-94558152D02*
X157064285Y-94653390D01*
X157064285Y-94653390D02*
X157111904Y-94701009D01*
X157111904Y-94701009D02*
X157207142Y-94748628D01*
X157207142Y-94748628D02*
X157588094Y-94748628D01*
X156683332Y-94224819D02*
X156064285Y-94224819D01*
X156064285Y-94224819D02*
X156397618Y-94605771D01*
X156397618Y-94605771D02*
X156254761Y-94605771D01*
X156254761Y-94605771D02*
X156159523Y-94653390D01*
X156159523Y-94653390D02*
X156111904Y-94701009D01*
X156111904Y-94701009D02*
X156064285Y-94796247D01*
X156064285Y-94796247D02*
X156064285Y-95034342D01*
X156064285Y-95034342D02*
X156111904Y-95129580D01*
X156111904Y-95129580D02*
X156159523Y-95177200D01*
X156159523Y-95177200D02*
X156254761Y-95224819D01*
X156254761Y-95224819D02*
X156540475Y-95224819D01*
X156540475Y-95224819D02*
X156635713Y-95177200D01*
X156635713Y-95177200D02*
X156683332Y-95129580D01*
X173816666Y-62659580D02*
X173864285Y-62707200D01*
X173864285Y-62707200D02*
X174007142Y-62754819D01*
X174007142Y-62754819D02*
X174102380Y-62754819D01*
X174102380Y-62754819D02*
X174245237Y-62707200D01*
X174245237Y-62707200D02*
X174340475Y-62611961D01*
X174340475Y-62611961D02*
X174388094Y-62516723D01*
X174388094Y-62516723D02*
X174435713Y-62326247D01*
X174435713Y-62326247D02*
X174435713Y-62183390D01*
X174435713Y-62183390D02*
X174388094Y-61992914D01*
X174388094Y-61992914D02*
X174340475Y-61897676D01*
X174340475Y-61897676D02*
X174245237Y-61802438D01*
X174245237Y-61802438D02*
X174102380Y-61754819D01*
X174102380Y-61754819D02*
X174007142Y-61754819D01*
X174007142Y-61754819D02*
X173864285Y-61802438D01*
X173864285Y-61802438D02*
X173816666Y-61850057D01*
X172959523Y-61754819D02*
X173149999Y-61754819D01*
X173149999Y-61754819D02*
X173245237Y-61802438D01*
X173245237Y-61802438D02*
X173292856Y-61850057D01*
X173292856Y-61850057D02*
X173388094Y-61992914D01*
X173388094Y-61992914D02*
X173435713Y-62183390D01*
X173435713Y-62183390D02*
X173435713Y-62564342D01*
X173435713Y-62564342D02*
X173388094Y-62659580D01*
X173388094Y-62659580D02*
X173340475Y-62707200D01*
X173340475Y-62707200D02*
X173245237Y-62754819D01*
X173245237Y-62754819D02*
X173054761Y-62754819D01*
X173054761Y-62754819D02*
X172959523Y-62707200D01*
X172959523Y-62707200D02*
X172911904Y-62659580D01*
X172911904Y-62659580D02*
X172864285Y-62564342D01*
X172864285Y-62564342D02*
X172864285Y-62326247D01*
X172864285Y-62326247D02*
X172911904Y-62231009D01*
X172911904Y-62231009D02*
X172959523Y-62183390D01*
X172959523Y-62183390D02*
X173054761Y-62135771D01*
X173054761Y-62135771D02*
X173245237Y-62135771D01*
X173245237Y-62135771D02*
X173340475Y-62183390D01*
X173340475Y-62183390D02*
X173388094Y-62231009D01*
X173388094Y-62231009D02*
X173435713Y-62326247D01*
X132016666Y-63809580D02*
X132064285Y-63857200D01*
X132064285Y-63857200D02*
X132207142Y-63904819D01*
X132207142Y-63904819D02*
X132302380Y-63904819D01*
X132302380Y-63904819D02*
X132445237Y-63857200D01*
X132445237Y-63857200D02*
X132540475Y-63761961D01*
X132540475Y-63761961D02*
X132588094Y-63666723D01*
X132588094Y-63666723D02*
X132635713Y-63476247D01*
X132635713Y-63476247D02*
X132635713Y-63333390D01*
X132635713Y-63333390D02*
X132588094Y-63142914D01*
X132588094Y-63142914D02*
X132540475Y-63047676D01*
X132540475Y-63047676D02*
X132445237Y-62952438D01*
X132445237Y-62952438D02*
X132302380Y-62904819D01*
X132302380Y-62904819D02*
X132207142Y-62904819D01*
X132207142Y-62904819D02*
X132064285Y-62952438D01*
X132064285Y-62952438D02*
X132016666Y-63000057D01*
X131111904Y-62904819D02*
X131588094Y-62904819D01*
X131588094Y-62904819D02*
X131635713Y-63381009D01*
X131635713Y-63381009D02*
X131588094Y-63333390D01*
X131588094Y-63333390D02*
X131492856Y-63285771D01*
X131492856Y-63285771D02*
X131254761Y-63285771D01*
X131254761Y-63285771D02*
X131159523Y-63333390D01*
X131159523Y-63333390D02*
X131111904Y-63381009D01*
X131111904Y-63381009D02*
X131064285Y-63476247D01*
X131064285Y-63476247D02*
X131064285Y-63714342D01*
X131064285Y-63714342D02*
X131111904Y-63809580D01*
X131111904Y-63809580D02*
X131159523Y-63857200D01*
X131159523Y-63857200D02*
X131254761Y-63904819D01*
X131254761Y-63904819D02*
X131492856Y-63904819D01*
X131492856Y-63904819D02*
X131588094Y-63857200D01*
X131588094Y-63857200D02*
X131635713Y-63809580D01*
D11*
G36*
X181425910Y-58013567D02*
G01*
X181445149Y-58032806D01*
X181478077Y-58098662D01*
X181519285Y-58263494D01*
X181519285Y-58474131D01*
X181478077Y-58638963D01*
X181445149Y-58704819D01*
X181425911Y-58724056D01*
X181374400Y-58749812D01*
X181337598Y-58749812D01*
X181286086Y-58724056D01*
X181266849Y-58704819D01*
X181233921Y-58638963D01*
X181192713Y-58474131D01*
X181192713Y-58263494D01*
X181233921Y-58098662D01*
X181266849Y-58032806D01*
X181286088Y-58013567D01*
X181337598Y-57987812D01*
X181374400Y-57987812D01*
X181425910Y-58013567D01*
G37*
G36*
X184948285Y-59130812D02*
G01*
X180811713Y-59130812D01*
X180811713Y-58247860D01*
X180938713Y-58247860D01*
X180938713Y-58489765D01*
X180939138Y-58494086D01*
X180938863Y-58495939D01*
X180940234Y-58505211D01*
X180941153Y-58514541D01*
X180941869Y-58516271D01*
X180942505Y-58520567D01*
X180990886Y-58714091D01*
X180991538Y-58715918D01*
X180991604Y-58716834D01*
X180995546Y-58727134D01*
X180999262Y-58737536D01*
X180999809Y-58738274D01*
X181000502Y-58740085D01*
X181048883Y-58836847D01*
X181055596Y-58847511D01*
X181056879Y-58850609D01*
X181059740Y-58854095D01*
X181062145Y-58857916D01*
X181064678Y-58860113D01*
X181072672Y-58869854D01*
X181121053Y-58918235D01*
X181130796Y-58926231D01*
X181132992Y-58928762D01*
X181136808Y-58931164D01*
X181140298Y-58934028D01*
X181143395Y-58935311D01*
X181154061Y-58942025D01*
X181250823Y-58990405D01*
X181274075Y-58999302D01*
X181278625Y-58999625D01*
X181282842Y-59001372D01*
X181307618Y-59003812D01*
X181404380Y-59003812D01*
X181429156Y-59001372D01*
X181433372Y-58999625D01*
X181437924Y-58999302D01*
X181461175Y-58990405D01*
X181557937Y-58942025D01*
X181568603Y-58935310D01*
X181571700Y-58934028D01*
X181575186Y-58931166D01*
X181579007Y-58928762D01*
X181581204Y-58926228D01*
X181590945Y-58918235D01*
X181639326Y-58869854D01*
X181647319Y-58860113D01*
X181649853Y-58857916D01*
X181652257Y-58854095D01*
X181653947Y-58852036D01*
X181908772Y-58852036D01*
X181908772Y-58901588D01*
X181927735Y-58947369D01*
X181962775Y-58982409D01*
X182008556Y-59001372D01*
X182033332Y-59003812D01*
X182613904Y-59003812D01*
X182638680Y-59001372D01*
X182684461Y-58982409D01*
X182719501Y-58947369D01*
X182738464Y-58901588D01*
X182738464Y-58852036D01*
X182719501Y-58806255D01*
X182684461Y-58771215D01*
X182638680Y-58752252D01*
X182613904Y-58749812D01*
X182450618Y-58749812D01*
X182450618Y-58210185D01*
X182460346Y-58216309D01*
X182557108Y-58264690D01*
X182580359Y-58273588D01*
X182629788Y-58277101D01*
X182676799Y-58261430D01*
X182714234Y-58228963D01*
X182736394Y-58184643D01*
X182739907Y-58135214D01*
X182724236Y-58088203D01*
X182691769Y-58050768D01*
X182670700Y-58037506D01*
X182592372Y-57998342D01*
X182519072Y-57925041D01*
X182476253Y-57860812D01*
X182922332Y-57860812D01*
X182922332Y-58876812D01*
X182922959Y-58883184D01*
X182922642Y-58885682D01*
X182923524Y-58888916D01*
X182924772Y-58901588D01*
X182931237Y-58917196D01*
X182935681Y-58933490D01*
X182940636Y-58939889D01*
X182943735Y-58947369D01*
X182955677Y-58959311D01*
X182966021Y-58972668D01*
X182973051Y-58976685D01*
X182978775Y-58982409D01*
X182994375Y-58988871D01*
X183009044Y-58997253D01*
X183017077Y-58998274D01*
X183024556Y-59001372D01*
X183041446Y-59001372D01*
X183058202Y-59003502D01*
X183066012Y-59001372D01*
X183074108Y-59001372D01*
X183089716Y-58994906D01*
X183106010Y-58990463D01*
X183112409Y-58985507D01*
X183119889Y-58982409D01*
X183131831Y-58970466D01*
X183145188Y-58960123D01*
X183152559Y-58949738D01*
X183154929Y-58947369D01*
X183155891Y-58945044D01*
X183159599Y-58939822D01*
X183502904Y-58339038D01*
X183502904Y-58876812D01*
X183505344Y-58901588D01*
X183524307Y-58947369D01*
X183559347Y-58982409D01*
X183605128Y-59001372D01*
X183654680Y-59001372D01*
X183700461Y-58982409D01*
X183735501Y-58947369D01*
X183754464Y-58901588D01*
X183756904Y-58876812D01*
X183756904Y-57932797D01*
X183940772Y-57932797D01*
X183940772Y-57982351D01*
X183959736Y-58028132D01*
X183994774Y-58063170D01*
X184040555Y-58082134D01*
X184090109Y-58082134D01*
X184135890Y-58063170D01*
X184155135Y-58047377D01*
X184182317Y-58020195D01*
X184279466Y-57987812D01*
X184335008Y-57987812D01*
X184432157Y-58020195D01*
X184493148Y-58081185D01*
X184526077Y-58147043D01*
X184567285Y-58311875D01*
X184567285Y-58425750D01*
X184526077Y-58590582D01*
X184493148Y-58656439D01*
X184432157Y-58717430D01*
X184335009Y-58749812D01*
X184279465Y-58749812D01*
X184182317Y-58717430D01*
X184155135Y-58690248D01*
X184135890Y-58674455D01*
X184090109Y-58655491D01*
X184040555Y-58655491D01*
X183994774Y-58674455D01*
X183959736Y-58709493D01*
X183940772Y-58755274D01*
X183940772Y-58804828D01*
X183959736Y-58850609D01*
X183975529Y-58869854D01*
X184023910Y-58918235D01*
X184043155Y-58934028D01*
X184047370Y-58935774D01*
X184050820Y-58938766D01*
X184073553Y-58948915D01*
X184218696Y-58997295D01*
X184230981Y-59000088D01*
X184234080Y-59001372D01*
X184238571Y-59001814D01*
X184242972Y-59002815D01*
X184246317Y-59002577D01*
X184258856Y-59003812D01*
X184355618Y-59003812D01*
X184368156Y-59002577D01*
X184371502Y-59002815D01*
X184375902Y-59001814D01*
X184380394Y-59001372D01*
X184383492Y-59000088D01*
X184395778Y-58997295D01*
X184540921Y-58948915D01*
X184563654Y-58938765D01*
X184567101Y-58935774D01*
X184571319Y-58934028D01*
X184590564Y-58918235D01*
X184687325Y-58821473D01*
X184695317Y-58811733D01*
X184697853Y-58809535D01*
X184700258Y-58805713D01*
X184703119Y-58802228D01*
X184704401Y-58799130D01*
X184711115Y-58788466D01*
X184759496Y-58691704D01*
X184760189Y-58689891D01*
X184760736Y-58689154D01*
X184764448Y-58678761D01*
X184768394Y-58668453D01*
X184768459Y-58667537D01*
X184769112Y-58665710D01*
X184817493Y-58472186D01*
X184818128Y-58467890D01*
X184818845Y-58466160D01*
X184819763Y-58456830D01*
X184821135Y-58447558D01*
X184820859Y-58445705D01*
X184821285Y-58441384D01*
X184821285Y-58296241D01*
X184820859Y-58291919D01*
X184821135Y-58290067D01*
X184819763Y-58280794D01*
X184818845Y-58271465D01*
X184818128Y-58269734D01*
X184817493Y-58265439D01*
X184769112Y-58071915D01*
X184768459Y-58070087D01*
X184768394Y-58069172D01*
X184764448Y-58058863D01*
X184760736Y-58048471D01*
X184760189Y-58047733D01*
X184759496Y-58045921D01*
X184711115Y-57949159D01*
X184704401Y-57938494D01*
X184703119Y-57935397D01*
X184700258Y-57931911D01*
X184697853Y-57928090D01*
X184695317Y-57925891D01*
X184687325Y-57916152D01*
X184590564Y-57819390D01*
X184571319Y-57803597D01*
X184567103Y-57801850D01*
X184563655Y-57798860D01*
X184540922Y-57788710D01*
X184395779Y-57740329D01*
X184383491Y-57737534D01*
X184380394Y-57736252D01*
X184375904Y-57735809D01*
X184371503Y-57734809D01*
X184368156Y-57735046D01*
X184355618Y-57733812D01*
X184258856Y-57733812D01*
X184246317Y-57735046D01*
X184242971Y-57734809D01*
X184238569Y-57735809D01*
X184234080Y-57736252D01*
X184230982Y-57737534D01*
X184218695Y-57740329D01*
X184073552Y-57788710D01*
X184050819Y-57798860D01*
X184047370Y-57801850D01*
X184043155Y-57803597D01*
X184023910Y-57819390D01*
X183975529Y-57867771D01*
X183959736Y-57887016D01*
X183940772Y-57932797D01*
X183756904Y-57932797D01*
X183756904Y-57860812D01*
X183756276Y-57854440D01*
X183756594Y-57851943D01*
X183755712Y-57848709D01*
X183754464Y-57836036D01*
X183747998Y-57820425D01*
X183743555Y-57804135D01*
X183738599Y-57797736D01*
X183735501Y-57790255D01*
X183723554Y-57778308D01*
X183713214Y-57764956D01*
X183706186Y-57760940D01*
X183700461Y-57755215D01*
X183684852Y-57748749D01*
X183670191Y-57740372D01*
X183662162Y-57739351D01*
X183654680Y-57736252D01*
X183637787Y-57736252D01*
X183621034Y-57734122D01*
X183613224Y-57736252D01*
X183605128Y-57736252D01*
X183589519Y-57742717D01*
X183573226Y-57747161D01*
X183566826Y-57752116D01*
X183559347Y-57755215D01*
X183547401Y-57767160D01*
X183534048Y-57777502D01*
X183526678Y-57787883D01*
X183524307Y-57790255D01*
X183523343Y-57792582D01*
X183519637Y-57797803D01*
X183176332Y-58398585D01*
X183176332Y-57860812D01*
X183173892Y-57836036D01*
X183154929Y-57790255D01*
X183119889Y-57755215D01*
X183074108Y-57736252D01*
X183024556Y-57736252D01*
X182978775Y-57755215D01*
X182943735Y-57790255D01*
X182924772Y-57836036D01*
X182922332Y-57860812D01*
X182476253Y-57860812D01*
X182429288Y-57790365D01*
X182429232Y-57790297D01*
X182429215Y-57790255D01*
X182429120Y-57790160D01*
X182413515Y-57771104D01*
X182403066Y-57764106D01*
X182394175Y-57755215D01*
X182382680Y-57750453D01*
X182372342Y-57743530D01*
X182360011Y-57741063D01*
X182348394Y-57736252D01*
X182335951Y-57736252D01*
X182323750Y-57733812D01*
X182311417Y-57736252D01*
X182298842Y-57736252D01*
X182287344Y-57741014D01*
X182275139Y-57743429D01*
X182264677Y-57750403D01*
X182253061Y-57755215D01*
X182244263Y-57764013D01*
X182233910Y-57770915D01*
X182226912Y-57781363D01*
X182218021Y-57790255D01*
X182213259Y-57801749D01*
X182206336Y-57812088D01*
X182203869Y-57824418D01*
X182199058Y-57836036D01*
X182196643Y-57860551D01*
X182196618Y-57860680D01*
X182196626Y-57860723D01*
X182196618Y-57860812D01*
X182196618Y-58749812D01*
X182033332Y-58749812D01*
X182008556Y-58752252D01*
X181962775Y-58771215D01*
X181927735Y-58806255D01*
X181908772Y-58852036D01*
X181653947Y-58852036D01*
X181655119Y-58850609D01*
X181656401Y-58847511D01*
X181663115Y-58836847D01*
X181711496Y-58740085D01*
X181712189Y-58738272D01*
X181712736Y-58737535D01*
X181716448Y-58727142D01*
X181720394Y-58716834D01*
X181720459Y-58715918D01*
X181721112Y-58714091D01*
X181769493Y-58520567D01*
X181770128Y-58516271D01*
X181770845Y-58514541D01*
X181771763Y-58505211D01*
X181773135Y-58495939D01*
X181772859Y-58494086D01*
X181773285Y-58489765D01*
X181773285Y-58247860D01*
X181772859Y-58243538D01*
X181773135Y-58241686D01*
X181771763Y-58232413D01*
X181770845Y-58223084D01*
X181770128Y-58221353D01*
X181769493Y-58217058D01*
X181721112Y-58023534D01*
X181720459Y-58021706D01*
X181720394Y-58020791D01*
X181716448Y-58010482D01*
X181712736Y-58000090D01*
X181712189Y-57999352D01*
X181711496Y-57997540D01*
X181663115Y-57900778D01*
X181656401Y-57890113D01*
X181655119Y-57887016D01*
X181652257Y-57883529D01*
X181649853Y-57879709D01*
X181647319Y-57877511D01*
X181639326Y-57867771D01*
X181590945Y-57819390D01*
X181581204Y-57811396D01*
X181579007Y-57808863D01*
X181575186Y-57806458D01*
X181571700Y-57803597D01*
X181568602Y-57802314D01*
X181557938Y-57795601D01*
X181461176Y-57747220D01*
X181437925Y-57738322D01*
X181433372Y-57737998D01*
X181429156Y-57736252D01*
X181404380Y-57733812D01*
X181307618Y-57733812D01*
X181282842Y-57736252D01*
X181278625Y-57737998D01*
X181274073Y-57738322D01*
X181250822Y-57747220D01*
X181154060Y-57795601D01*
X181143395Y-57802314D01*
X181140298Y-57803597D01*
X181136811Y-57806458D01*
X181132991Y-57808863D01*
X181130793Y-57811396D01*
X181121053Y-57819390D01*
X181072672Y-57867771D01*
X181064678Y-57877511D01*
X181062145Y-57879709D01*
X181059740Y-57883529D01*
X181056879Y-57887016D01*
X181055596Y-57890113D01*
X181048883Y-57900778D01*
X181000502Y-57997540D01*
X180999809Y-57999350D01*
X180999262Y-58000089D01*
X180995546Y-58010490D01*
X180991604Y-58020791D01*
X180991538Y-58021706D01*
X180990886Y-58023534D01*
X180942505Y-58217058D01*
X180941869Y-58221353D01*
X180941153Y-58223084D01*
X180940234Y-58232413D01*
X180938863Y-58241686D01*
X180939138Y-58243538D01*
X180938713Y-58247860D01*
X180811713Y-58247860D01*
X180811713Y-57606812D01*
X184948285Y-57606812D01*
X184948285Y-59130812D01*
G37*
G36*
X123504476Y-59130812D02*
G01*
X120289289Y-59130812D01*
X120289289Y-57837557D01*
X120416289Y-57837557D01*
X120416582Y-57861553D01*
X120416582Y-57885588D01*
X120416884Y-57886318D01*
X120416894Y-57887106D01*
X120424411Y-57910840D01*
X120859840Y-58926840D01*
X120871842Y-58948651D01*
X120907306Y-58983261D01*
X120953316Y-59001665D01*
X121002865Y-59001060D01*
X121048410Y-58981541D01*
X121083020Y-58946077D01*
X121101424Y-58900067D01*
X121100819Y-58850518D01*
X121093302Y-58826784D01*
X120733742Y-57987812D01*
X121218476Y-57987812D01*
X121243252Y-57985372D01*
X121289033Y-57966409D01*
X121324073Y-57931369D01*
X121343036Y-57885588D01*
X121343036Y-57860812D01*
X121478523Y-57860812D01*
X121478523Y-58876812D01*
X121479150Y-58883184D01*
X121478833Y-58885682D01*
X121479715Y-58888916D01*
X121480963Y-58901588D01*
X121487428Y-58917196D01*
X121491872Y-58933490D01*
X121496827Y-58939889D01*
X121499926Y-58947369D01*
X121511868Y-58959311D01*
X121522212Y-58972668D01*
X121529242Y-58976685D01*
X121534966Y-58982409D01*
X121550566Y-58988871D01*
X121565235Y-58997253D01*
X121573268Y-58998274D01*
X121580747Y-59001372D01*
X121597637Y-59001372D01*
X121614393Y-59003502D01*
X121622203Y-59001372D01*
X121630299Y-59001372D01*
X121645907Y-58994906D01*
X121662201Y-58990463D01*
X121668600Y-58985507D01*
X121676080Y-58982409D01*
X121688022Y-58970466D01*
X121701379Y-58960123D01*
X121708750Y-58949738D01*
X121711120Y-58947369D01*
X121712082Y-58945044D01*
X121715790Y-58939822D01*
X122059095Y-58339038D01*
X122059095Y-58876812D01*
X122061535Y-58901588D01*
X122080498Y-58947369D01*
X122115538Y-58982409D01*
X122161319Y-59001372D01*
X122210871Y-59001372D01*
X122256652Y-58982409D01*
X122291692Y-58947369D01*
X122310655Y-58901588D01*
X122313095Y-58876812D01*
X122313095Y-57932797D01*
X122496963Y-57932797D01*
X122496963Y-57982351D01*
X122515927Y-58028132D01*
X122550965Y-58063170D01*
X122596746Y-58082134D01*
X122646300Y-58082134D01*
X122692081Y-58063170D01*
X122711326Y-58047377D01*
X122738508Y-58020195D01*
X122835657Y-57987812D01*
X122891199Y-57987812D01*
X122988348Y-58020195D01*
X123049339Y-58081185D01*
X123082268Y-58147043D01*
X123123476Y-58311875D01*
X123123476Y-58425750D01*
X123082268Y-58590582D01*
X123049339Y-58656439D01*
X122988348Y-58717430D01*
X122891200Y-58749812D01*
X122835656Y-58749812D01*
X122738508Y-58717430D01*
X122711326Y-58690248D01*
X122692081Y-58674455D01*
X122646300Y-58655491D01*
X122596746Y-58655491D01*
X122550965Y-58674455D01*
X122515927Y-58709493D01*
X122496963Y-58755274D01*
X122496963Y-58804828D01*
X122515927Y-58850609D01*
X122531720Y-58869854D01*
X122580101Y-58918235D01*
X122599346Y-58934028D01*
X122603561Y-58935774D01*
X122607011Y-58938766D01*
X122629744Y-58948915D01*
X122774887Y-58997295D01*
X122787172Y-59000088D01*
X122790271Y-59001372D01*
X122794762Y-59001814D01*
X122799163Y-59002815D01*
X122802508Y-59002577D01*
X122815047Y-59003812D01*
X122911809Y-59003812D01*
X122924347Y-59002577D01*
X122927693Y-59002815D01*
X122932093Y-59001814D01*
X122936585Y-59001372D01*
X122939683Y-59000088D01*
X122951969Y-58997295D01*
X123097112Y-58948915D01*
X123119845Y-58938765D01*
X123123292Y-58935774D01*
X123127510Y-58934028D01*
X123146755Y-58918235D01*
X123243516Y-58821473D01*
X123251508Y-58811733D01*
X123254044Y-58809535D01*
X123256449Y-58805713D01*
X123259310Y-58802228D01*
X123260592Y-58799130D01*
X123267306Y-58788466D01*
X123315687Y-58691704D01*
X123316380Y-58689891D01*
X123316927Y-58689154D01*
X123320639Y-58678761D01*
X123324585Y-58668453D01*
X123324650Y-58667537D01*
X123325303Y-58665710D01*
X123373684Y-58472186D01*
X123374319Y-58467890D01*
X123375036Y-58466160D01*
X123375954Y-58456830D01*
X123377326Y-58447558D01*
X123377050Y-58445705D01*
X123377476Y-58441384D01*
X123377476Y-58296241D01*
X123377050Y-58291919D01*
X123377326Y-58290067D01*
X123375954Y-58280794D01*
X123375036Y-58271465D01*
X123374319Y-58269734D01*
X123373684Y-58265439D01*
X123325303Y-58071915D01*
X123324650Y-58070087D01*
X123324585Y-58069172D01*
X123320639Y-58058863D01*
X123316927Y-58048471D01*
X123316380Y-58047733D01*
X123315687Y-58045921D01*
X123267306Y-57949159D01*
X123260592Y-57938494D01*
X123259310Y-57935397D01*
X123256449Y-57931911D01*
X123254044Y-57928090D01*
X123251508Y-57925891D01*
X123243516Y-57916152D01*
X123146755Y-57819390D01*
X123127510Y-57803597D01*
X123123294Y-57801850D01*
X123119846Y-57798860D01*
X123097113Y-57788710D01*
X122951970Y-57740329D01*
X122939682Y-57737534D01*
X122936585Y-57736252D01*
X122932095Y-57735809D01*
X122927694Y-57734809D01*
X122924347Y-57735046D01*
X122911809Y-57733812D01*
X122815047Y-57733812D01*
X122802508Y-57735046D01*
X122799162Y-57734809D01*
X122794760Y-57735809D01*
X122790271Y-57736252D01*
X122787173Y-57737534D01*
X122774886Y-57740329D01*
X122629743Y-57788710D01*
X122607010Y-57798860D01*
X122603561Y-57801850D01*
X122599346Y-57803597D01*
X122580101Y-57819390D01*
X122531720Y-57867771D01*
X122515927Y-57887016D01*
X122496963Y-57932797D01*
X122313095Y-57932797D01*
X122313095Y-57860812D01*
X122312467Y-57854440D01*
X122312785Y-57851943D01*
X122311903Y-57848709D01*
X122310655Y-57836036D01*
X122304189Y-57820425D01*
X122299746Y-57804135D01*
X122294790Y-57797736D01*
X122291692Y-57790255D01*
X122279745Y-57778308D01*
X122269405Y-57764956D01*
X122262377Y-57760940D01*
X122256652Y-57755215D01*
X122241043Y-57748749D01*
X122226382Y-57740372D01*
X122218353Y-57739351D01*
X122210871Y-57736252D01*
X122193978Y-57736252D01*
X122177225Y-57734122D01*
X122169415Y-57736252D01*
X122161319Y-57736252D01*
X122145710Y-57742717D01*
X122129417Y-57747161D01*
X122123017Y-57752116D01*
X122115538Y-57755215D01*
X122103592Y-57767160D01*
X122090239Y-57777502D01*
X122082869Y-57787883D01*
X122080498Y-57790255D01*
X122079534Y-57792582D01*
X122075828Y-57797803D01*
X121732523Y-58398585D01*
X121732523Y-57860812D01*
X121730083Y-57836036D01*
X121711120Y-57790255D01*
X121676080Y-57755215D01*
X121630299Y-57736252D01*
X121580747Y-57736252D01*
X121534966Y-57755215D01*
X121499926Y-57790255D01*
X121480963Y-57836036D01*
X121478523Y-57860812D01*
X121343036Y-57860812D01*
X121343036Y-57836036D01*
X121324073Y-57790255D01*
X121289033Y-57755215D01*
X121243252Y-57736252D01*
X121218476Y-57733812D01*
X120541142Y-57733812D01*
X120516366Y-57736252D01*
X120515635Y-57736554D01*
X120514848Y-57736564D01*
X120492779Y-57746021D01*
X120470585Y-57755215D01*
X120470027Y-57755772D01*
X120469303Y-57756083D01*
X120452524Y-57773275D01*
X120435545Y-57790255D01*
X120435243Y-57790982D01*
X120434693Y-57791547D01*
X120425774Y-57813842D01*
X120416582Y-57836036D01*
X120416582Y-57836824D01*
X120416289Y-57837557D01*
X120289289Y-57837557D01*
X120289289Y-57606812D01*
X123504476Y-57606812D01*
X123504476Y-59130812D01*
G37*
D10*
X163334819Y-102383333D02*
X162858628Y-102050000D01*
X163334819Y-101811905D02*
X162334819Y-101811905D01*
X162334819Y-101811905D02*
X162334819Y-102192857D01*
X162334819Y-102192857D02*
X162382438Y-102288095D01*
X162382438Y-102288095D02*
X162430057Y-102335714D01*
X162430057Y-102335714D02*
X162525295Y-102383333D01*
X162525295Y-102383333D02*
X162668152Y-102383333D01*
X162668152Y-102383333D02*
X162763390Y-102335714D01*
X162763390Y-102335714D02*
X162811009Y-102288095D01*
X162811009Y-102288095D02*
X162858628Y-102192857D01*
X162858628Y-102192857D02*
X162858628Y-101811905D01*
X163334819Y-103335714D02*
X163334819Y-102764286D01*
X163334819Y-103050000D02*
X162334819Y-103050000D01*
X162334819Y-103050000D02*
X162477676Y-102954762D01*
X162477676Y-102954762D02*
X162572914Y-102859524D01*
X162572914Y-102859524D02*
X162620533Y-102764286D01*
X177261904Y-55254819D02*
X177261904Y-54254819D01*
X177261904Y-54731009D02*
X176690476Y-54731009D01*
X176690476Y-55254819D02*
X176690476Y-54254819D01*
X175785714Y-54588152D02*
X175785714Y-55254819D01*
X176023809Y-54207200D02*
X176261904Y-54921485D01*
X176261904Y-54921485D02*
X175642857Y-54921485D01*
X143342857Y-91254819D02*
X143676190Y-90778628D01*
X143914285Y-91254819D02*
X143914285Y-90254819D01*
X143914285Y-90254819D02*
X143533333Y-90254819D01*
X143533333Y-90254819D02*
X143438095Y-90302438D01*
X143438095Y-90302438D02*
X143390476Y-90350057D01*
X143390476Y-90350057D02*
X143342857Y-90445295D01*
X143342857Y-90445295D02*
X143342857Y-90588152D01*
X143342857Y-90588152D02*
X143390476Y-90683390D01*
X143390476Y-90683390D02*
X143438095Y-90731009D01*
X143438095Y-90731009D02*
X143533333Y-90778628D01*
X143533333Y-90778628D02*
X143914285Y-90778628D01*
X142390476Y-91254819D02*
X142961904Y-91254819D01*
X142676190Y-91254819D02*
X142676190Y-90254819D01*
X142676190Y-90254819D02*
X142771428Y-90397676D01*
X142771428Y-90397676D02*
X142866666Y-90492914D01*
X142866666Y-90492914D02*
X142961904Y-90540533D01*
X142009523Y-90350057D02*
X141961904Y-90302438D01*
X141961904Y-90302438D02*
X141866666Y-90254819D01*
X141866666Y-90254819D02*
X141628571Y-90254819D01*
X141628571Y-90254819D02*
X141533333Y-90302438D01*
X141533333Y-90302438D02*
X141485714Y-90350057D01*
X141485714Y-90350057D02*
X141438095Y-90445295D01*
X141438095Y-90445295D02*
X141438095Y-90540533D01*
X141438095Y-90540533D02*
X141485714Y-90683390D01*
X141485714Y-90683390D02*
X142057142Y-91254819D01*
X142057142Y-91254819D02*
X141438095Y-91254819D01*
X140333333Y-102544819D02*
X140333333Y-103259104D01*
X140333333Y-103259104D02*
X140380952Y-103401961D01*
X140380952Y-103401961D02*
X140476190Y-103497200D01*
X140476190Y-103497200D02*
X140619047Y-103544819D01*
X140619047Y-103544819D02*
X140714285Y-103544819D01*
X139380952Y-102544819D02*
X139857142Y-102544819D01*
X139857142Y-102544819D02*
X139904761Y-103021009D01*
X139904761Y-103021009D02*
X139857142Y-102973390D01*
X139857142Y-102973390D02*
X139761904Y-102925771D01*
X139761904Y-102925771D02*
X139523809Y-102925771D01*
X139523809Y-102925771D02*
X139428571Y-102973390D01*
X139428571Y-102973390D02*
X139380952Y-103021009D01*
X139380952Y-103021009D02*
X139333333Y-103116247D01*
X139333333Y-103116247D02*
X139333333Y-103354342D01*
X139333333Y-103354342D02*
X139380952Y-103449580D01*
X139380952Y-103449580D02*
X139428571Y-103497200D01*
X139428571Y-103497200D02*
X139523809Y-103544819D01*
X139523809Y-103544819D02*
X139761904Y-103544819D01*
X139761904Y-103544819D02*
X139857142Y-103497200D01*
X139857142Y-103497200D02*
X139904761Y-103449580D01*
X143454819Y-95557142D02*
X142978628Y-95223809D01*
X143454819Y-94985714D02*
X142454819Y-94985714D01*
X142454819Y-94985714D02*
X142454819Y-95366666D01*
X142454819Y-95366666D02*
X142502438Y-95461904D01*
X142502438Y-95461904D02*
X142550057Y-95509523D01*
X142550057Y-95509523D02*
X142645295Y-95557142D01*
X142645295Y-95557142D02*
X142788152Y-95557142D01*
X142788152Y-95557142D02*
X142883390Y-95509523D01*
X142883390Y-95509523D02*
X142931009Y-95461904D01*
X142931009Y-95461904D02*
X142978628Y-95366666D01*
X142978628Y-95366666D02*
X142978628Y-94985714D01*
X143454819Y-96509523D02*
X143454819Y-95938095D01*
X143454819Y-96223809D02*
X142454819Y-96223809D01*
X142454819Y-96223809D02*
X142597676Y-96128571D01*
X142597676Y-96128571D02*
X142692914Y-96033333D01*
X142692914Y-96033333D02*
X142740533Y-95938095D01*
X142454819Y-97414285D02*
X142454819Y-96938095D01*
X142454819Y-96938095D02*
X142931009Y-96890476D01*
X142931009Y-96890476D02*
X142883390Y-96938095D01*
X142883390Y-96938095D02*
X142835771Y-97033333D01*
X142835771Y-97033333D02*
X142835771Y-97271428D01*
X142835771Y-97271428D02*
X142883390Y-97366666D01*
X142883390Y-97366666D02*
X142931009Y-97414285D01*
X142931009Y-97414285D02*
X143026247Y-97461904D01*
X143026247Y-97461904D02*
X143264342Y-97461904D01*
X143264342Y-97461904D02*
X143359580Y-97414285D01*
X143359580Y-97414285D02*
X143407200Y-97366666D01*
X143407200Y-97366666D02*
X143454819Y-97271428D01*
X143454819Y-97271428D02*
X143454819Y-97033333D01*
X143454819Y-97033333D02*
X143407200Y-96938095D01*
X143407200Y-96938095D02*
X143359580Y-96890476D01*
X145159580Y-95357142D02*
X145207200Y-95309523D01*
X145207200Y-95309523D02*
X145254819Y-95166666D01*
X145254819Y-95166666D02*
X145254819Y-95071428D01*
X145254819Y-95071428D02*
X145207200Y-94928571D01*
X145207200Y-94928571D02*
X145111961Y-94833333D01*
X145111961Y-94833333D02*
X145016723Y-94785714D01*
X145016723Y-94785714D02*
X144826247Y-94738095D01*
X144826247Y-94738095D02*
X144683390Y-94738095D01*
X144683390Y-94738095D02*
X144492914Y-94785714D01*
X144492914Y-94785714D02*
X144397676Y-94833333D01*
X144397676Y-94833333D02*
X144302438Y-94928571D01*
X144302438Y-94928571D02*
X144254819Y-95071428D01*
X144254819Y-95071428D02*
X144254819Y-95166666D01*
X144254819Y-95166666D02*
X144302438Y-95309523D01*
X144302438Y-95309523D02*
X144350057Y-95357142D01*
X144350057Y-95738095D02*
X144302438Y-95785714D01*
X144302438Y-95785714D02*
X144254819Y-95880952D01*
X144254819Y-95880952D02*
X144254819Y-96119047D01*
X144254819Y-96119047D02*
X144302438Y-96214285D01*
X144302438Y-96214285D02*
X144350057Y-96261904D01*
X144350057Y-96261904D02*
X144445295Y-96309523D01*
X144445295Y-96309523D02*
X144540533Y-96309523D01*
X144540533Y-96309523D02*
X144683390Y-96261904D01*
X144683390Y-96261904D02*
X145254819Y-95690476D01*
X145254819Y-95690476D02*
X145254819Y-96309523D01*
X144254819Y-97214285D02*
X144254819Y-96738095D01*
X144254819Y-96738095D02*
X144731009Y-96690476D01*
X144731009Y-96690476D02*
X144683390Y-96738095D01*
X144683390Y-96738095D02*
X144635771Y-96833333D01*
X144635771Y-96833333D02*
X144635771Y-97071428D01*
X144635771Y-97071428D02*
X144683390Y-97166666D01*
X144683390Y-97166666D02*
X144731009Y-97214285D01*
X144731009Y-97214285D02*
X144826247Y-97261904D01*
X144826247Y-97261904D02*
X145064342Y-97261904D01*
X145064342Y-97261904D02*
X145159580Y-97214285D01*
X145159580Y-97214285D02*
X145207200Y-97166666D01*
X145207200Y-97166666D02*
X145254819Y-97071428D01*
X145254819Y-97071428D02*
X145254819Y-96833333D01*
X145254819Y-96833333D02*
X145207200Y-96738095D01*
X145207200Y-96738095D02*
X145159580Y-96690476D01*
X125804819Y-93563095D02*
X126614342Y-93563095D01*
X126614342Y-93563095D02*
X126709580Y-93610714D01*
X126709580Y-93610714D02*
X126757200Y-93658333D01*
X126757200Y-93658333D02*
X126804819Y-93753571D01*
X126804819Y-93753571D02*
X126804819Y-93944047D01*
X126804819Y-93944047D02*
X126757200Y-94039285D01*
X126757200Y-94039285D02*
X126709580Y-94086904D01*
X126709580Y-94086904D02*
X126614342Y-94134523D01*
X126614342Y-94134523D02*
X125804819Y-94134523D01*
X125804819Y-95039285D02*
X125804819Y-94848809D01*
X125804819Y-94848809D02*
X125852438Y-94753571D01*
X125852438Y-94753571D02*
X125900057Y-94705952D01*
X125900057Y-94705952D02*
X126042914Y-94610714D01*
X126042914Y-94610714D02*
X126233390Y-94563095D01*
X126233390Y-94563095D02*
X126614342Y-94563095D01*
X126614342Y-94563095D02*
X126709580Y-94610714D01*
X126709580Y-94610714D02*
X126757200Y-94658333D01*
X126757200Y-94658333D02*
X126804819Y-94753571D01*
X126804819Y-94753571D02*
X126804819Y-94944047D01*
X126804819Y-94944047D02*
X126757200Y-95039285D01*
X126757200Y-95039285D02*
X126709580Y-95086904D01*
X126709580Y-95086904D02*
X126614342Y-95134523D01*
X126614342Y-95134523D02*
X126376247Y-95134523D01*
X126376247Y-95134523D02*
X126281009Y-95086904D01*
X126281009Y-95086904D02*
X126233390Y-95039285D01*
X126233390Y-95039285D02*
X126185771Y-94944047D01*
X126185771Y-94944047D02*
X126185771Y-94753571D01*
X126185771Y-94753571D02*
X126233390Y-94658333D01*
X126233390Y-94658333D02*
X126281009Y-94610714D01*
X126281009Y-94610714D02*
X126376247Y-94563095D01*
X134809580Y-97082142D02*
X134857200Y-97034523D01*
X134857200Y-97034523D02*
X134904819Y-96891666D01*
X134904819Y-96891666D02*
X134904819Y-96796428D01*
X134904819Y-96796428D02*
X134857200Y-96653571D01*
X134857200Y-96653571D02*
X134761961Y-96558333D01*
X134761961Y-96558333D02*
X134666723Y-96510714D01*
X134666723Y-96510714D02*
X134476247Y-96463095D01*
X134476247Y-96463095D02*
X134333390Y-96463095D01*
X134333390Y-96463095D02*
X134142914Y-96510714D01*
X134142914Y-96510714D02*
X134047676Y-96558333D01*
X134047676Y-96558333D02*
X133952438Y-96653571D01*
X133952438Y-96653571D02*
X133904819Y-96796428D01*
X133904819Y-96796428D02*
X133904819Y-96891666D01*
X133904819Y-96891666D02*
X133952438Y-97034523D01*
X133952438Y-97034523D02*
X134000057Y-97082142D01*
X134000057Y-97463095D02*
X133952438Y-97510714D01*
X133952438Y-97510714D02*
X133904819Y-97605952D01*
X133904819Y-97605952D02*
X133904819Y-97844047D01*
X133904819Y-97844047D02*
X133952438Y-97939285D01*
X133952438Y-97939285D02*
X134000057Y-97986904D01*
X134000057Y-97986904D02*
X134095295Y-98034523D01*
X134095295Y-98034523D02*
X134190533Y-98034523D01*
X134190533Y-98034523D02*
X134333390Y-97986904D01*
X134333390Y-97986904D02*
X134904819Y-97415476D01*
X134904819Y-97415476D02*
X134904819Y-98034523D01*
X133904819Y-98367857D02*
X133904819Y-98986904D01*
X133904819Y-98986904D02*
X134285771Y-98653571D01*
X134285771Y-98653571D02*
X134285771Y-98796428D01*
X134285771Y-98796428D02*
X134333390Y-98891666D01*
X134333390Y-98891666D02*
X134381009Y-98939285D01*
X134381009Y-98939285D02*
X134476247Y-98986904D01*
X134476247Y-98986904D02*
X134714342Y-98986904D01*
X134714342Y-98986904D02*
X134809580Y-98939285D01*
X134809580Y-98939285D02*
X134857200Y-98891666D01*
X134857200Y-98891666D02*
X134904819Y-98796428D01*
X134904819Y-98796428D02*
X134904819Y-98510714D01*
X134904819Y-98510714D02*
X134857200Y-98415476D01*
X134857200Y-98415476D02*
X134809580Y-98367857D01*
X154166666Y-88604819D02*
X154499999Y-88128628D01*
X154738094Y-88604819D02*
X154738094Y-87604819D01*
X154738094Y-87604819D02*
X154357142Y-87604819D01*
X154357142Y-87604819D02*
X154261904Y-87652438D01*
X154261904Y-87652438D02*
X154214285Y-87700057D01*
X154214285Y-87700057D02*
X154166666Y-87795295D01*
X154166666Y-87795295D02*
X154166666Y-87938152D01*
X154166666Y-87938152D02*
X154214285Y-88033390D01*
X154214285Y-88033390D02*
X154261904Y-88081009D01*
X154261904Y-88081009D02*
X154357142Y-88128628D01*
X154357142Y-88128628D02*
X154738094Y-88128628D01*
X153309523Y-87604819D02*
X153499999Y-87604819D01*
X153499999Y-87604819D02*
X153595237Y-87652438D01*
X153595237Y-87652438D02*
X153642856Y-87700057D01*
X153642856Y-87700057D02*
X153738094Y-87842914D01*
X153738094Y-87842914D02*
X153785713Y-88033390D01*
X153785713Y-88033390D02*
X153785713Y-88414342D01*
X153785713Y-88414342D02*
X153738094Y-88509580D01*
X153738094Y-88509580D02*
X153690475Y-88557200D01*
X153690475Y-88557200D02*
X153595237Y-88604819D01*
X153595237Y-88604819D02*
X153404761Y-88604819D01*
X153404761Y-88604819D02*
X153309523Y-88557200D01*
X153309523Y-88557200D02*
X153261904Y-88509580D01*
X153261904Y-88509580D02*
X153214285Y-88414342D01*
X153214285Y-88414342D02*
X153214285Y-88176247D01*
X153214285Y-88176247D02*
X153261904Y-88081009D01*
X153261904Y-88081009D02*
X153309523Y-88033390D01*
X153309523Y-88033390D02*
X153404761Y-87985771D01*
X153404761Y-87985771D02*
X153595237Y-87985771D01*
X153595237Y-87985771D02*
X153690475Y-88033390D01*
X153690475Y-88033390D02*
X153738094Y-88081009D01*
X153738094Y-88081009D02*
X153785713Y-88176247D01*
D11*
X137370952Y-88195270D02*
X137491904Y-88134794D01*
X137491904Y-88134794D02*
X137612857Y-88013842D01*
X137612857Y-88013842D02*
X137794285Y-87832413D01*
X137794285Y-87832413D02*
X137915238Y-87771937D01*
X137915238Y-87771937D02*
X138036190Y-87771937D01*
X137975714Y-88074318D02*
X138096666Y-88013842D01*
X138096666Y-88013842D02*
X138217619Y-87892889D01*
X138217619Y-87892889D02*
X138278095Y-87650984D01*
X138278095Y-87650984D02*
X138278095Y-87227651D01*
X138278095Y-87227651D02*
X138217619Y-86985746D01*
X138217619Y-86985746D02*
X138096666Y-86864794D01*
X138096666Y-86864794D02*
X137975714Y-86804318D01*
X137975714Y-86804318D02*
X137733809Y-86804318D01*
X137733809Y-86804318D02*
X137612857Y-86864794D01*
X137612857Y-86864794D02*
X137491904Y-86985746D01*
X137491904Y-86985746D02*
X137431428Y-87227651D01*
X137431428Y-87227651D02*
X137431428Y-87650984D01*
X137431428Y-87650984D02*
X137491904Y-87892889D01*
X137491904Y-87892889D02*
X137612857Y-88013842D01*
X137612857Y-88013842D02*
X137733809Y-88074318D01*
X137733809Y-88074318D02*
X137975714Y-88074318D01*
X136221904Y-88074318D02*
X136947619Y-88074318D01*
X136584762Y-88074318D02*
X136584762Y-86804318D01*
X136584762Y-86804318D02*
X136705714Y-86985746D01*
X136705714Y-86985746D02*
X136826666Y-87106699D01*
X136826666Y-87106699D02*
X136947619Y-87167175D01*
D10*
X134104819Y-87333333D02*
X133628628Y-87000000D01*
X134104819Y-86761905D02*
X133104819Y-86761905D01*
X133104819Y-86761905D02*
X133104819Y-87142857D01*
X133104819Y-87142857D02*
X133152438Y-87238095D01*
X133152438Y-87238095D02*
X133200057Y-87285714D01*
X133200057Y-87285714D02*
X133295295Y-87333333D01*
X133295295Y-87333333D02*
X133438152Y-87333333D01*
X133438152Y-87333333D02*
X133533390Y-87285714D01*
X133533390Y-87285714D02*
X133581009Y-87238095D01*
X133581009Y-87238095D02*
X133628628Y-87142857D01*
X133628628Y-87142857D02*
X133628628Y-86761905D01*
X134104819Y-87809524D02*
X134104819Y-88000000D01*
X134104819Y-88000000D02*
X134057200Y-88095238D01*
X134057200Y-88095238D02*
X134009580Y-88142857D01*
X134009580Y-88142857D02*
X133866723Y-88238095D01*
X133866723Y-88238095D02*
X133676247Y-88285714D01*
X133676247Y-88285714D02*
X133295295Y-88285714D01*
X133295295Y-88285714D02*
X133200057Y-88238095D01*
X133200057Y-88238095D02*
X133152438Y-88190476D01*
X133152438Y-88190476D02*
X133104819Y-88095238D01*
X133104819Y-88095238D02*
X133104819Y-87904762D01*
X133104819Y-87904762D02*
X133152438Y-87809524D01*
X133152438Y-87809524D02*
X133200057Y-87761905D01*
X133200057Y-87761905D02*
X133295295Y-87714286D01*
X133295295Y-87714286D02*
X133533390Y-87714286D01*
X133533390Y-87714286D02*
X133628628Y-87761905D01*
X133628628Y-87761905D02*
X133676247Y-87809524D01*
X133676247Y-87809524D02*
X133723866Y-87904762D01*
X133723866Y-87904762D02*
X133723866Y-88095238D01*
X133723866Y-88095238D02*
X133676247Y-88190476D01*
X133676247Y-88190476D02*
X133628628Y-88238095D01*
X133628628Y-88238095D02*
X133533390Y-88285714D01*
X137666666Y-84709580D02*
X137714285Y-84757200D01*
X137714285Y-84757200D02*
X137857142Y-84804819D01*
X137857142Y-84804819D02*
X137952380Y-84804819D01*
X137952380Y-84804819D02*
X138095237Y-84757200D01*
X138095237Y-84757200D02*
X138190475Y-84661961D01*
X138190475Y-84661961D02*
X138238094Y-84566723D01*
X138238094Y-84566723D02*
X138285713Y-84376247D01*
X138285713Y-84376247D02*
X138285713Y-84233390D01*
X138285713Y-84233390D02*
X138238094Y-84042914D01*
X138238094Y-84042914D02*
X138190475Y-83947676D01*
X138190475Y-83947676D02*
X138095237Y-83852438D01*
X138095237Y-83852438D02*
X137952380Y-83804819D01*
X137952380Y-83804819D02*
X137857142Y-83804819D01*
X137857142Y-83804819D02*
X137714285Y-83852438D01*
X137714285Y-83852438D02*
X137666666Y-83900057D01*
X137095237Y-84233390D02*
X137190475Y-84185771D01*
X137190475Y-84185771D02*
X137238094Y-84138152D01*
X137238094Y-84138152D02*
X137285713Y-84042914D01*
X137285713Y-84042914D02*
X137285713Y-83995295D01*
X137285713Y-83995295D02*
X137238094Y-83900057D01*
X137238094Y-83900057D02*
X137190475Y-83852438D01*
X137190475Y-83852438D02*
X137095237Y-83804819D01*
X137095237Y-83804819D02*
X136904761Y-83804819D01*
X136904761Y-83804819D02*
X136809523Y-83852438D01*
X136809523Y-83852438D02*
X136761904Y-83900057D01*
X136761904Y-83900057D02*
X136714285Y-83995295D01*
X136714285Y-83995295D02*
X136714285Y-84042914D01*
X136714285Y-84042914D02*
X136761904Y-84138152D01*
X136761904Y-84138152D02*
X136809523Y-84185771D01*
X136809523Y-84185771D02*
X136904761Y-84233390D01*
X136904761Y-84233390D02*
X137095237Y-84233390D01*
X137095237Y-84233390D02*
X137190475Y-84281009D01*
X137190475Y-84281009D02*
X137238094Y-84328628D01*
X137238094Y-84328628D02*
X137285713Y-84423866D01*
X137285713Y-84423866D02*
X137285713Y-84614342D01*
X137285713Y-84614342D02*
X137238094Y-84709580D01*
X137238094Y-84709580D02*
X137190475Y-84757200D01*
X137190475Y-84757200D02*
X137095237Y-84804819D01*
X137095237Y-84804819D02*
X136904761Y-84804819D01*
X136904761Y-84804819D02*
X136809523Y-84757200D01*
X136809523Y-84757200D02*
X136761904Y-84709580D01*
X136761904Y-84709580D02*
X136714285Y-84614342D01*
X136714285Y-84614342D02*
X136714285Y-84423866D01*
X136714285Y-84423866D02*
X136761904Y-84328628D01*
X136761904Y-84328628D02*
X136809523Y-84281009D01*
X136809523Y-84281009D02*
X136904761Y-84233390D01*
X140604819Y-93388095D02*
X141414342Y-93388095D01*
X141414342Y-93388095D02*
X141509580Y-93435714D01*
X141509580Y-93435714D02*
X141557200Y-93483333D01*
X141557200Y-93483333D02*
X141604819Y-93578571D01*
X141604819Y-93578571D02*
X141604819Y-93769047D01*
X141604819Y-93769047D02*
X141557200Y-93864285D01*
X141557200Y-93864285D02*
X141509580Y-93911904D01*
X141509580Y-93911904D02*
X141414342Y-93959523D01*
X141414342Y-93959523D02*
X140604819Y-93959523D01*
X140604819Y-94911904D02*
X140604819Y-94435714D01*
X140604819Y-94435714D02*
X141081009Y-94388095D01*
X141081009Y-94388095D02*
X141033390Y-94435714D01*
X141033390Y-94435714D02*
X140985771Y-94530952D01*
X140985771Y-94530952D02*
X140985771Y-94769047D01*
X140985771Y-94769047D02*
X141033390Y-94864285D01*
X141033390Y-94864285D02*
X141081009Y-94911904D01*
X141081009Y-94911904D02*
X141176247Y-94959523D01*
X141176247Y-94959523D02*
X141414342Y-94959523D01*
X141414342Y-94959523D02*
X141509580Y-94911904D01*
X141509580Y-94911904D02*
X141557200Y-94864285D01*
X141557200Y-94864285D02*
X141604819Y-94769047D01*
X141604819Y-94769047D02*
X141604819Y-94530952D01*
X141604819Y-94530952D02*
X141557200Y-94435714D01*
X141557200Y-94435714D02*
X141509580Y-94388095D01*
X150166666Y-75059580D02*
X150214285Y-75107200D01*
X150214285Y-75107200D02*
X150357142Y-75154819D01*
X150357142Y-75154819D02*
X150452380Y-75154819D01*
X150452380Y-75154819D02*
X150595237Y-75107200D01*
X150595237Y-75107200D02*
X150690475Y-75011961D01*
X150690475Y-75011961D02*
X150738094Y-74916723D01*
X150738094Y-74916723D02*
X150785713Y-74726247D01*
X150785713Y-74726247D02*
X150785713Y-74583390D01*
X150785713Y-74583390D02*
X150738094Y-74392914D01*
X150738094Y-74392914D02*
X150690475Y-74297676D01*
X150690475Y-74297676D02*
X150595237Y-74202438D01*
X150595237Y-74202438D02*
X150452380Y-74154819D01*
X150452380Y-74154819D02*
X150357142Y-74154819D01*
X150357142Y-74154819D02*
X150214285Y-74202438D01*
X150214285Y-74202438D02*
X150166666Y-74250057D01*
X149833332Y-74154819D02*
X149214285Y-74154819D01*
X149214285Y-74154819D02*
X149547618Y-74535771D01*
X149547618Y-74535771D02*
X149404761Y-74535771D01*
X149404761Y-74535771D02*
X149309523Y-74583390D01*
X149309523Y-74583390D02*
X149261904Y-74631009D01*
X149261904Y-74631009D02*
X149214285Y-74726247D01*
X149214285Y-74726247D02*
X149214285Y-74964342D01*
X149214285Y-74964342D02*
X149261904Y-75059580D01*
X149261904Y-75059580D02*
X149309523Y-75107200D01*
X149309523Y-75107200D02*
X149404761Y-75154819D01*
X149404761Y-75154819D02*
X149690475Y-75154819D01*
X149690475Y-75154819D02*
X149785713Y-75107200D01*
X149785713Y-75107200D02*
X149833332Y-75059580D01*
X204258333Y-125019819D02*
X204258333Y-125734104D01*
X204258333Y-125734104D02*
X204305952Y-125876961D01*
X204305952Y-125876961D02*
X204401190Y-125972200D01*
X204401190Y-125972200D02*
X204544047Y-126019819D01*
X204544047Y-126019819D02*
X204639285Y-126019819D01*
X203877380Y-125019819D02*
X203258333Y-125019819D01*
X203258333Y-125019819D02*
X203591666Y-125400771D01*
X203591666Y-125400771D02*
X203448809Y-125400771D01*
X203448809Y-125400771D02*
X203353571Y-125448390D01*
X203353571Y-125448390D02*
X203305952Y-125496009D01*
X203305952Y-125496009D02*
X203258333Y-125591247D01*
X203258333Y-125591247D02*
X203258333Y-125829342D01*
X203258333Y-125829342D02*
X203305952Y-125924580D01*
X203305952Y-125924580D02*
X203353571Y-125972200D01*
X203353571Y-125972200D02*
X203448809Y-126019819D01*
X203448809Y-126019819D02*
X203734523Y-126019819D01*
X203734523Y-126019819D02*
X203829761Y-125972200D01*
X203829761Y-125972200D02*
X203877380Y-125924580D01*
X149254819Y-90488095D02*
X150064342Y-90488095D01*
X150064342Y-90488095D02*
X150159580Y-90535714D01*
X150159580Y-90535714D02*
X150207200Y-90583333D01*
X150207200Y-90583333D02*
X150254819Y-90678571D01*
X150254819Y-90678571D02*
X150254819Y-90869047D01*
X150254819Y-90869047D02*
X150207200Y-90964285D01*
X150207200Y-90964285D02*
X150159580Y-91011904D01*
X150159580Y-91011904D02*
X150064342Y-91059523D01*
X150064342Y-91059523D02*
X149254819Y-91059523D01*
X149254819Y-91440476D02*
X149254819Y-92059523D01*
X149254819Y-92059523D02*
X149635771Y-91726190D01*
X149635771Y-91726190D02*
X149635771Y-91869047D01*
X149635771Y-91869047D02*
X149683390Y-91964285D01*
X149683390Y-91964285D02*
X149731009Y-92011904D01*
X149731009Y-92011904D02*
X149826247Y-92059523D01*
X149826247Y-92059523D02*
X150064342Y-92059523D01*
X150064342Y-92059523D02*
X150159580Y-92011904D01*
X150159580Y-92011904D02*
X150207200Y-91964285D01*
X150207200Y-91964285D02*
X150254819Y-91869047D01*
X150254819Y-91869047D02*
X150254819Y-91583333D01*
X150254819Y-91583333D02*
X150207200Y-91488095D01*
X150207200Y-91488095D02*
X150159580Y-91440476D01*
D11*
X136795270Y-95929047D02*
X136734794Y-95808095D01*
X136734794Y-95808095D02*
X136613842Y-95687142D01*
X136613842Y-95687142D02*
X136432413Y-95505714D01*
X136432413Y-95505714D02*
X136371937Y-95384761D01*
X136371937Y-95384761D02*
X136371937Y-95263809D01*
X136674318Y-95324285D02*
X136613842Y-95203333D01*
X136613842Y-95203333D02*
X136492889Y-95082380D01*
X136492889Y-95082380D02*
X136250984Y-95021904D01*
X136250984Y-95021904D02*
X135827651Y-95021904D01*
X135827651Y-95021904D02*
X135585746Y-95082380D01*
X135585746Y-95082380D02*
X135464794Y-95203333D01*
X135464794Y-95203333D02*
X135404318Y-95324285D01*
X135404318Y-95324285D02*
X135404318Y-95566190D01*
X135404318Y-95566190D02*
X135464794Y-95687142D01*
X135464794Y-95687142D02*
X135585746Y-95808095D01*
X135585746Y-95808095D02*
X135827651Y-95868571D01*
X135827651Y-95868571D02*
X136250984Y-95868571D01*
X136250984Y-95868571D02*
X136492889Y-95808095D01*
X136492889Y-95808095D02*
X136613842Y-95687142D01*
X136613842Y-95687142D02*
X136674318Y-95566190D01*
X136674318Y-95566190D02*
X136674318Y-95324285D01*
X135525270Y-96352380D02*
X135464794Y-96412856D01*
X135464794Y-96412856D02*
X135404318Y-96533809D01*
X135404318Y-96533809D02*
X135404318Y-96836190D01*
X135404318Y-96836190D02*
X135464794Y-96957142D01*
X135464794Y-96957142D02*
X135525270Y-97017618D01*
X135525270Y-97017618D02*
X135646222Y-97078095D01*
X135646222Y-97078095D02*
X135767175Y-97078095D01*
X135767175Y-97078095D02*
X135948603Y-97017618D01*
X135948603Y-97017618D02*
X136674318Y-96291904D01*
X136674318Y-96291904D02*
X136674318Y-97078095D01*
D10*
X139288094Y-105104819D02*
X139288094Y-104104819D01*
X139288094Y-104104819D02*
X139049999Y-104104819D01*
X139049999Y-104104819D02*
X138907142Y-104152438D01*
X138907142Y-104152438D02*
X138811904Y-104247676D01*
X138811904Y-104247676D02*
X138764285Y-104342914D01*
X138764285Y-104342914D02*
X138716666Y-104533390D01*
X138716666Y-104533390D02*
X138716666Y-104676247D01*
X138716666Y-104676247D02*
X138764285Y-104866723D01*
X138764285Y-104866723D02*
X138811904Y-104961961D01*
X138811904Y-104961961D02*
X138907142Y-105057200D01*
X138907142Y-105057200D02*
X139049999Y-105104819D01*
X139049999Y-105104819D02*
X139288094Y-105104819D01*
X138335713Y-104200057D02*
X138288094Y-104152438D01*
X138288094Y-104152438D02*
X138192856Y-104104819D01*
X138192856Y-104104819D02*
X137954761Y-104104819D01*
X137954761Y-104104819D02*
X137859523Y-104152438D01*
X137859523Y-104152438D02*
X137811904Y-104200057D01*
X137811904Y-104200057D02*
X137764285Y-104295295D01*
X137764285Y-104295295D02*
X137764285Y-104390533D01*
X137764285Y-104390533D02*
X137811904Y-104533390D01*
X137811904Y-104533390D02*
X138383332Y-105104819D01*
X138383332Y-105104819D02*
X137764285Y-105104819D01*
X139766666Y-75179580D02*
X139814285Y-75227200D01*
X139814285Y-75227200D02*
X139957142Y-75274819D01*
X139957142Y-75274819D02*
X140052380Y-75274819D01*
X140052380Y-75274819D02*
X140195237Y-75227200D01*
X140195237Y-75227200D02*
X140290475Y-75131961D01*
X140290475Y-75131961D02*
X140338094Y-75036723D01*
X140338094Y-75036723D02*
X140385713Y-74846247D01*
X140385713Y-74846247D02*
X140385713Y-74703390D01*
X140385713Y-74703390D02*
X140338094Y-74512914D01*
X140338094Y-74512914D02*
X140290475Y-74417676D01*
X140290475Y-74417676D02*
X140195237Y-74322438D01*
X140195237Y-74322438D02*
X140052380Y-74274819D01*
X140052380Y-74274819D02*
X139957142Y-74274819D01*
X139957142Y-74274819D02*
X139814285Y-74322438D01*
X139814285Y-74322438D02*
X139766666Y-74370057D01*
X139433332Y-74274819D02*
X138766666Y-74274819D01*
X138766666Y-74274819D02*
X139195237Y-75274819D01*
X156954819Y-101811905D02*
X155954819Y-101811905D01*
X155954819Y-101811905D02*
X155954819Y-102050000D01*
X155954819Y-102050000D02*
X156002438Y-102192857D01*
X156002438Y-102192857D02*
X156097676Y-102288095D01*
X156097676Y-102288095D02*
X156192914Y-102335714D01*
X156192914Y-102335714D02*
X156383390Y-102383333D01*
X156383390Y-102383333D02*
X156526247Y-102383333D01*
X156526247Y-102383333D02*
X156716723Y-102335714D01*
X156716723Y-102335714D02*
X156811961Y-102288095D01*
X156811961Y-102288095D02*
X156907200Y-102192857D01*
X156907200Y-102192857D02*
X156954819Y-102050000D01*
X156954819Y-102050000D02*
X156954819Y-101811905D01*
X156954819Y-103335714D02*
X156954819Y-102764286D01*
X156954819Y-103050000D02*
X155954819Y-103050000D01*
X155954819Y-103050000D02*
X156097676Y-102954762D01*
X156097676Y-102954762D02*
X156192914Y-102859524D01*
X156192914Y-102859524D02*
X156240533Y-102764286D01*
X144454819Y-102711905D02*
X143454819Y-102711905D01*
X143454819Y-102711905D02*
X143454819Y-102950000D01*
X143454819Y-102950000D02*
X143502438Y-103092857D01*
X143502438Y-103092857D02*
X143597676Y-103188095D01*
X143597676Y-103188095D02*
X143692914Y-103235714D01*
X143692914Y-103235714D02*
X143883390Y-103283333D01*
X143883390Y-103283333D02*
X144026247Y-103283333D01*
X144026247Y-103283333D02*
X144216723Y-103235714D01*
X144216723Y-103235714D02*
X144311961Y-103188095D01*
X144311961Y-103188095D02*
X144407200Y-103092857D01*
X144407200Y-103092857D02*
X144454819Y-102950000D01*
X144454819Y-102950000D02*
X144454819Y-102711905D01*
X143454819Y-103616667D02*
X143454819Y-104235714D01*
X143454819Y-104235714D02*
X143835771Y-103902381D01*
X143835771Y-103902381D02*
X143835771Y-104045238D01*
X143835771Y-104045238D02*
X143883390Y-104140476D01*
X143883390Y-104140476D02*
X143931009Y-104188095D01*
X143931009Y-104188095D02*
X144026247Y-104235714D01*
X144026247Y-104235714D02*
X144264342Y-104235714D01*
X144264342Y-104235714D02*
X144359580Y-104188095D01*
X144359580Y-104188095D02*
X144407200Y-104140476D01*
X144407200Y-104140476D02*
X144454819Y-104045238D01*
X144454819Y-104045238D02*
X144454819Y-103759524D01*
X144454819Y-103759524D02*
X144407200Y-103664286D01*
X144407200Y-103664286D02*
X144359580Y-103616667D01*
X154116666Y-100454819D02*
X154449999Y-99978628D01*
X154688094Y-100454819D02*
X154688094Y-99454819D01*
X154688094Y-99454819D02*
X154307142Y-99454819D01*
X154307142Y-99454819D02*
X154211904Y-99502438D01*
X154211904Y-99502438D02*
X154164285Y-99550057D01*
X154164285Y-99550057D02*
X154116666Y-99645295D01*
X154116666Y-99645295D02*
X154116666Y-99788152D01*
X154116666Y-99788152D02*
X154164285Y-99883390D01*
X154164285Y-99883390D02*
X154211904Y-99931009D01*
X154211904Y-99931009D02*
X154307142Y-99978628D01*
X154307142Y-99978628D02*
X154688094Y-99978628D01*
X153259523Y-99788152D02*
X153259523Y-100454819D01*
X153497618Y-99407200D02*
X153735713Y-100121485D01*
X153735713Y-100121485D02*
X153116666Y-100121485D01*
X144361904Y-76204819D02*
X144361904Y-77014342D01*
X144361904Y-77014342D02*
X144314285Y-77109580D01*
X144314285Y-77109580D02*
X144266666Y-77157200D01*
X144266666Y-77157200D02*
X144171428Y-77204819D01*
X144171428Y-77204819D02*
X143980952Y-77204819D01*
X143980952Y-77204819D02*
X143885714Y-77157200D01*
X143885714Y-77157200D02*
X143838095Y-77109580D01*
X143838095Y-77109580D02*
X143790476Y-77014342D01*
X143790476Y-77014342D02*
X143790476Y-76204819D01*
X142885714Y-76538152D02*
X142885714Y-77204819D01*
X143123809Y-76157200D02*
X143361904Y-76871485D01*
X143361904Y-76871485D02*
X142742857Y-76871485D01*
X127142857Y-100789580D02*
X127190476Y-100837200D01*
X127190476Y-100837200D02*
X127333333Y-100884819D01*
X127333333Y-100884819D02*
X127428571Y-100884819D01*
X127428571Y-100884819D02*
X127571428Y-100837200D01*
X127571428Y-100837200D02*
X127666666Y-100741961D01*
X127666666Y-100741961D02*
X127714285Y-100646723D01*
X127714285Y-100646723D02*
X127761904Y-100456247D01*
X127761904Y-100456247D02*
X127761904Y-100313390D01*
X127761904Y-100313390D02*
X127714285Y-100122914D01*
X127714285Y-100122914D02*
X127666666Y-100027676D01*
X127666666Y-100027676D02*
X127571428Y-99932438D01*
X127571428Y-99932438D02*
X127428571Y-99884819D01*
X127428571Y-99884819D02*
X127333333Y-99884819D01*
X127333333Y-99884819D02*
X127190476Y-99932438D01*
X127190476Y-99932438D02*
X127142857Y-99980057D01*
X126190476Y-100884819D02*
X126761904Y-100884819D01*
X126476190Y-100884819D02*
X126476190Y-99884819D01*
X126476190Y-99884819D02*
X126571428Y-100027676D01*
X126571428Y-100027676D02*
X126666666Y-100122914D01*
X126666666Y-100122914D02*
X126761904Y-100170533D01*
X125809523Y-99980057D02*
X125761904Y-99932438D01*
X125761904Y-99932438D02*
X125666666Y-99884819D01*
X125666666Y-99884819D02*
X125428571Y-99884819D01*
X125428571Y-99884819D02*
X125333333Y-99932438D01*
X125333333Y-99932438D02*
X125285714Y-99980057D01*
X125285714Y-99980057D02*
X125238095Y-100075295D01*
X125238095Y-100075295D02*
X125238095Y-100170533D01*
X125238095Y-100170533D02*
X125285714Y-100313390D01*
X125285714Y-100313390D02*
X125857142Y-100884819D01*
X125857142Y-100884819D02*
X125238095Y-100884819D01*
X131954819Y-99957142D02*
X131478628Y-99623809D01*
X131954819Y-99385714D02*
X130954819Y-99385714D01*
X130954819Y-99385714D02*
X130954819Y-99766666D01*
X130954819Y-99766666D02*
X131002438Y-99861904D01*
X131002438Y-99861904D02*
X131050057Y-99909523D01*
X131050057Y-99909523D02*
X131145295Y-99957142D01*
X131145295Y-99957142D02*
X131288152Y-99957142D01*
X131288152Y-99957142D02*
X131383390Y-99909523D01*
X131383390Y-99909523D02*
X131431009Y-99861904D01*
X131431009Y-99861904D02*
X131478628Y-99766666D01*
X131478628Y-99766666D02*
X131478628Y-99385714D01*
X131954819Y-100909523D02*
X131954819Y-100338095D01*
X131954819Y-100623809D02*
X130954819Y-100623809D01*
X130954819Y-100623809D02*
X131097676Y-100528571D01*
X131097676Y-100528571D02*
X131192914Y-100433333D01*
X131192914Y-100433333D02*
X131240533Y-100338095D01*
X130954819Y-101242857D02*
X130954819Y-101861904D01*
X130954819Y-101861904D02*
X131335771Y-101528571D01*
X131335771Y-101528571D02*
X131335771Y-101671428D01*
X131335771Y-101671428D02*
X131383390Y-101766666D01*
X131383390Y-101766666D02*
X131431009Y-101814285D01*
X131431009Y-101814285D02*
X131526247Y-101861904D01*
X131526247Y-101861904D02*
X131764342Y-101861904D01*
X131764342Y-101861904D02*
X131859580Y-101814285D01*
X131859580Y-101814285D02*
X131907200Y-101766666D01*
X131907200Y-101766666D02*
X131954819Y-101671428D01*
X131954819Y-101671428D02*
X131954819Y-101385714D01*
X131954819Y-101385714D02*
X131907200Y-101290476D01*
X131907200Y-101290476D02*
X131859580Y-101242857D01*
X151092857Y-94909580D02*
X151140476Y-94957200D01*
X151140476Y-94957200D02*
X151283333Y-95004819D01*
X151283333Y-95004819D02*
X151378571Y-95004819D01*
X151378571Y-95004819D02*
X151521428Y-94957200D01*
X151521428Y-94957200D02*
X151616666Y-94861961D01*
X151616666Y-94861961D02*
X151664285Y-94766723D01*
X151664285Y-94766723D02*
X151711904Y-94576247D01*
X151711904Y-94576247D02*
X151711904Y-94433390D01*
X151711904Y-94433390D02*
X151664285Y-94242914D01*
X151664285Y-94242914D02*
X151616666Y-94147676D01*
X151616666Y-94147676D02*
X151521428Y-94052438D01*
X151521428Y-94052438D02*
X151378571Y-94004819D01*
X151378571Y-94004819D02*
X151283333Y-94004819D01*
X151283333Y-94004819D02*
X151140476Y-94052438D01*
X151140476Y-94052438D02*
X151092857Y-94100057D01*
X150711904Y-94100057D02*
X150664285Y-94052438D01*
X150664285Y-94052438D02*
X150569047Y-94004819D01*
X150569047Y-94004819D02*
X150330952Y-94004819D01*
X150330952Y-94004819D02*
X150235714Y-94052438D01*
X150235714Y-94052438D02*
X150188095Y-94100057D01*
X150188095Y-94100057D02*
X150140476Y-94195295D01*
X150140476Y-94195295D02*
X150140476Y-94290533D01*
X150140476Y-94290533D02*
X150188095Y-94433390D01*
X150188095Y-94433390D02*
X150759523Y-95004819D01*
X150759523Y-95004819D02*
X150140476Y-95004819D01*
X149521428Y-94004819D02*
X149426190Y-94004819D01*
X149426190Y-94004819D02*
X149330952Y-94052438D01*
X149330952Y-94052438D02*
X149283333Y-94100057D01*
X149283333Y-94100057D02*
X149235714Y-94195295D01*
X149235714Y-94195295D02*
X149188095Y-94385771D01*
X149188095Y-94385771D02*
X149188095Y-94623866D01*
X149188095Y-94623866D02*
X149235714Y-94814342D01*
X149235714Y-94814342D02*
X149283333Y-94909580D01*
X149283333Y-94909580D02*
X149330952Y-94957200D01*
X149330952Y-94957200D02*
X149426190Y-95004819D01*
X149426190Y-95004819D02*
X149521428Y-95004819D01*
X149521428Y-95004819D02*
X149616666Y-94957200D01*
X149616666Y-94957200D02*
X149664285Y-94909580D01*
X149664285Y-94909580D02*
X149711904Y-94814342D01*
X149711904Y-94814342D02*
X149759523Y-94623866D01*
X149759523Y-94623866D02*
X149759523Y-94385771D01*
X149759523Y-94385771D02*
X149711904Y-94195295D01*
X149711904Y-94195295D02*
X149664285Y-94100057D01*
X149664285Y-94100057D02*
X149616666Y-94052438D01*
X149616666Y-94052438D02*
X149521428Y-94004819D01*
X176333332Y-100582200D02*
X176190475Y-100629819D01*
X176190475Y-100629819D02*
X175952380Y-100629819D01*
X175952380Y-100629819D02*
X175857142Y-100582200D01*
X175857142Y-100582200D02*
X175809523Y-100534580D01*
X175809523Y-100534580D02*
X175761904Y-100439342D01*
X175761904Y-100439342D02*
X175761904Y-100344104D01*
X175761904Y-100344104D02*
X175809523Y-100248866D01*
X175809523Y-100248866D02*
X175857142Y-100201247D01*
X175857142Y-100201247D02*
X175952380Y-100153628D01*
X175952380Y-100153628D02*
X176142856Y-100106009D01*
X176142856Y-100106009D02*
X176238094Y-100058390D01*
X176238094Y-100058390D02*
X176285713Y-100010771D01*
X176285713Y-100010771D02*
X176333332Y-99915533D01*
X176333332Y-99915533D02*
X176333332Y-99820295D01*
X176333332Y-99820295D02*
X176285713Y-99725057D01*
X176285713Y-99725057D02*
X176238094Y-99677438D01*
X176238094Y-99677438D02*
X176142856Y-99629819D01*
X176142856Y-99629819D02*
X175904761Y-99629819D01*
X175904761Y-99629819D02*
X175761904Y-99677438D01*
X175428570Y-99629819D02*
X175190475Y-100629819D01*
X175190475Y-100629819D02*
X174999999Y-99915533D01*
X174999999Y-99915533D02*
X174809523Y-100629819D01*
X174809523Y-100629819D02*
X174571428Y-99629819D01*
X173666666Y-100629819D02*
X174238094Y-100629819D01*
X173952380Y-100629819D02*
X173952380Y-99629819D01*
X173952380Y-99629819D02*
X174047618Y-99772676D01*
X174047618Y-99772676D02*
X174142856Y-99867914D01*
X174142856Y-99867914D02*
X174238094Y-99915533D01*
X156916666Y-90924819D02*
X157249999Y-90448628D01*
X157488094Y-90924819D02*
X157488094Y-89924819D01*
X157488094Y-89924819D02*
X157107142Y-89924819D01*
X157107142Y-89924819D02*
X157011904Y-89972438D01*
X157011904Y-89972438D02*
X156964285Y-90020057D01*
X156964285Y-90020057D02*
X156916666Y-90115295D01*
X156916666Y-90115295D02*
X156916666Y-90258152D01*
X156916666Y-90258152D02*
X156964285Y-90353390D01*
X156964285Y-90353390D02*
X157011904Y-90401009D01*
X157011904Y-90401009D02*
X157107142Y-90448628D01*
X157107142Y-90448628D02*
X157488094Y-90448628D01*
X156011904Y-89924819D02*
X156488094Y-89924819D01*
X156488094Y-89924819D02*
X156535713Y-90401009D01*
X156535713Y-90401009D02*
X156488094Y-90353390D01*
X156488094Y-90353390D02*
X156392856Y-90305771D01*
X156392856Y-90305771D02*
X156154761Y-90305771D01*
X156154761Y-90305771D02*
X156059523Y-90353390D01*
X156059523Y-90353390D02*
X156011904Y-90401009D01*
X156011904Y-90401009D02*
X155964285Y-90496247D01*
X155964285Y-90496247D02*
X155964285Y-90734342D01*
X155964285Y-90734342D02*
X156011904Y-90829580D01*
X156011904Y-90829580D02*
X156059523Y-90877200D01*
X156059523Y-90877200D02*
X156154761Y-90924819D01*
X156154761Y-90924819D02*
X156392856Y-90924819D01*
X156392856Y-90924819D02*
X156488094Y-90877200D01*
X156488094Y-90877200D02*
X156535713Y-90829580D01*
X152742857Y-103259580D02*
X152790476Y-103307200D01*
X152790476Y-103307200D02*
X152933333Y-103354819D01*
X152933333Y-103354819D02*
X153028571Y-103354819D01*
X153028571Y-103354819D02*
X153171428Y-103307200D01*
X153171428Y-103307200D02*
X153266666Y-103211961D01*
X153266666Y-103211961D02*
X153314285Y-103116723D01*
X153314285Y-103116723D02*
X153361904Y-102926247D01*
X153361904Y-102926247D02*
X153361904Y-102783390D01*
X153361904Y-102783390D02*
X153314285Y-102592914D01*
X153314285Y-102592914D02*
X153266666Y-102497676D01*
X153266666Y-102497676D02*
X153171428Y-102402438D01*
X153171428Y-102402438D02*
X153028571Y-102354819D01*
X153028571Y-102354819D02*
X152933333Y-102354819D01*
X152933333Y-102354819D02*
X152790476Y-102402438D01*
X152790476Y-102402438D02*
X152742857Y-102450057D01*
X152361904Y-102450057D02*
X152314285Y-102402438D01*
X152314285Y-102402438D02*
X152219047Y-102354819D01*
X152219047Y-102354819D02*
X151980952Y-102354819D01*
X151980952Y-102354819D02*
X151885714Y-102402438D01*
X151885714Y-102402438D02*
X151838095Y-102450057D01*
X151838095Y-102450057D02*
X151790476Y-102545295D01*
X151790476Y-102545295D02*
X151790476Y-102640533D01*
X151790476Y-102640533D02*
X151838095Y-102783390D01*
X151838095Y-102783390D02*
X152409523Y-103354819D01*
X152409523Y-103354819D02*
X151790476Y-103354819D01*
X150933333Y-102688152D02*
X150933333Y-103354819D01*
X151171428Y-102307200D02*
X151409523Y-103021485D01*
X151409523Y-103021485D02*
X150790476Y-103021485D01*
X152733333Y-60684819D02*
X152733333Y-61399104D01*
X152733333Y-61399104D02*
X152780952Y-61541961D01*
X152780952Y-61541961D02*
X152876190Y-61637200D01*
X152876190Y-61637200D02*
X153019047Y-61684819D01*
X153019047Y-61684819D02*
X153114285Y-61684819D01*
X151828571Y-61018152D02*
X151828571Y-61684819D01*
X152066666Y-60637200D02*
X152304761Y-61351485D01*
X152304761Y-61351485D02*
X151685714Y-61351485D01*
X141166666Y-84539580D02*
X141214285Y-84587200D01*
X141214285Y-84587200D02*
X141357142Y-84634819D01*
X141357142Y-84634819D02*
X141452380Y-84634819D01*
X141452380Y-84634819D02*
X141595237Y-84587200D01*
X141595237Y-84587200D02*
X141690475Y-84491961D01*
X141690475Y-84491961D02*
X141738094Y-84396723D01*
X141738094Y-84396723D02*
X141785713Y-84206247D01*
X141785713Y-84206247D02*
X141785713Y-84063390D01*
X141785713Y-84063390D02*
X141738094Y-83872914D01*
X141738094Y-83872914D02*
X141690475Y-83777676D01*
X141690475Y-83777676D02*
X141595237Y-83682438D01*
X141595237Y-83682438D02*
X141452380Y-83634819D01*
X141452380Y-83634819D02*
X141357142Y-83634819D01*
X141357142Y-83634819D02*
X141214285Y-83682438D01*
X141214285Y-83682438D02*
X141166666Y-83730057D01*
X140690475Y-84634819D02*
X140499999Y-84634819D01*
X140499999Y-84634819D02*
X140404761Y-84587200D01*
X140404761Y-84587200D02*
X140357142Y-84539580D01*
X140357142Y-84539580D02*
X140261904Y-84396723D01*
X140261904Y-84396723D02*
X140214285Y-84206247D01*
X140214285Y-84206247D02*
X140214285Y-83825295D01*
X140214285Y-83825295D02*
X140261904Y-83730057D01*
X140261904Y-83730057D02*
X140309523Y-83682438D01*
X140309523Y-83682438D02*
X140404761Y-83634819D01*
X140404761Y-83634819D02*
X140595237Y-83634819D01*
X140595237Y-83634819D02*
X140690475Y-83682438D01*
X140690475Y-83682438D02*
X140738094Y-83730057D01*
X140738094Y-83730057D02*
X140785713Y-83825295D01*
X140785713Y-83825295D02*
X140785713Y-84063390D01*
X140785713Y-84063390D02*
X140738094Y-84158628D01*
X140738094Y-84158628D02*
X140690475Y-84206247D01*
X140690475Y-84206247D02*
X140595237Y-84253866D01*
X140595237Y-84253866D02*
X140404761Y-84253866D01*
X140404761Y-84253866D02*
X140309523Y-84206247D01*
X140309523Y-84206247D02*
X140261904Y-84158628D01*
X140261904Y-84158628D02*
X140214285Y-84063390D01*
X157454819Y-98188095D02*
X158264342Y-98188095D01*
X158264342Y-98188095D02*
X158359580Y-98235714D01*
X158359580Y-98235714D02*
X158407200Y-98283333D01*
X158407200Y-98283333D02*
X158454819Y-98378571D01*
X158454819Y-98378571D02*
X158454819Y-98569047D01*
X158454819Y-98569047D02*
X158407200Y-98664285D01*
X158407200Y-98664285D02*
X158359580Y-98711904D01*
X158359580Y-98711904D02*
X158264342Y-98759523D01*
X158264342Y-98759523D02*
X157454819Y-98759523D01*
X158454819Y-99759523D02*
X158454819Y-99188095D01*
X158454819Y-99473809D02*
X157454819Y-99473809D01*
X157454819Y-99473809D02*
X157597676Y-99378571D01*
X157597676Y-99378571D02*
X157692914Y-99283333D01*
X157692914Y-99283333D02*
X157740533Y-99188095D01*
X163654819Y-95433333D02*
X163178628Y-95100000D01*
X163654819Y-94861905D02*
X162654819Y-94861905D01*
X162654819Y-94861905D02*
X162654819Y-95242857D01*
X162654819Y-95242857D02*
X162702438Y-95338095D01*
X162702438Y-95338095D02*
X162750057Y-95385714D01*
X162750057Y-95385714D02*
X162845295Y-95433333D01*
X162845295Y-95433333D02*
X162988152Y-95433333D01*
X162988152Y-95433333D02*
X163083390Y-95385714D01*
X163083390Y-95385714D02*
X163131009Y-95338095D01*
X163131009Y-95338095D02*
X163178628Y-95242857D01*
X163178628Y-95242857D02*
X163178628Y-94861905D01*
X162750057Y-95814286D02*
X162702438Y-95861905D01*
X162702438Y-95861905D02*
X162654819Y-95957143D01*
X162654819Y-95957143D02*
X162654819Y-96195238D01*
X162654819Y-96195238D02*
X162702438Y-96290476D01*
X162702438Y-96290476D02*
X162750057Y-96338095D01*
X162750057Y-96338095D02*
X162845295Y-96385714D01*
X162845295Y-96385714D02*
X162940533Y-96385714D01*
X162940533Y-96385714D02*
X163083390Y-96338095D01*
X163083390Y-96338095D02*
X163654819Y-95766667D01*
X163654819Y-95766667D02*
X163654819Y-96385714D01*
X141934819Y-96882142D02*
X141458628Y-96548809D01*
X141934819Y-96310714D02*
X140934819Y-96310714D01*
X140934819Y-96310714D02*
X140934819Y-96691666D01*
X140934819Y-96691666D02*
X140982438Y-96786904D01*
X140982438Y-96786904D02*
X141030057Y-96834523D01*
X141030057Y-96834523D02*
X141125295Y-96882142D01*
X141125295Y-96882142D02*
X141268152Y-96882142D01*
X141268152Y-96882142D02*
X141363390Y-96834523D01*
X141363390Y-96834523D02*
X141411009Y-96786904D01*
X141411009Y-96786904D02*
X141458628Y-96691666D01*
X141458628Y-96691666D02*
X141458628Y-96310714D01*
X141934819Y-97834523D02*
X141934819Y-97263095D01*
X141934819Y-97548809D02*
X140934819Y-97548809D01*
X140934819Y-97548809D02*
X141077676Y-97453571D01*
X141077676Y-97453571D02*
X141172914Y-97358333D01*
X141172914Y-97358333D02*
X141220533Y-97263095D01*
X140934819Y-98453571D02*
X140934819Y-98548809D01*
X140934819Y-98548809D02*
X140982438Y-98644047D01*
X140982438Y-98644047D02*
X141030057Y-98691666D01*
X141030057Y-98691666D02*
X141125295Y-98739285D01*
X141125295Y-98739285D02*
X141315771Y-98786904D01*
X141315771Y-98786904D02*
X141553866Y-98786904D01*
X141553866Y-98786904D02*
X141744342Y-98739285D01*
X141744342Y-98739285D02*
X141839580Y-98691666D01*
X141839580Y-98691666D02*
X141887200Y-98644047D01*
X141887200Y-98644047D02*
X141934819Y-98548809D01*
X141934819Y-98548809D02*
X141934819Y-98453571D01*
X141934819Y-98453571D02*
X141887200Y-98358333D01*
X141887200Y-98358333D02*
X141839580Y-98310714D01*
X141839580Y-98310714D02*
X141744342Y-98263095D01*
X141744342Y-98263095D02*
X141553866Y-98215476D01*
X141553866Y-98215476D02*
X141315771Y-98215476D01*
X141315771Y-98215476D02*
X141125295Y-98263095D01*
X141125295Y-98263095D02*
X141030057Y-98310714D01*
X141030057Y-98310714D02*
X140982438Y-98358333D01*
X140982438Y-98358333D02*
X140934819Y-98453571D01*
X148604819Y-96088095D02*
X149414342Y-96088095D01*
X149414342Y-96088095D02*
X149509580Y-96135714D01*
X149509580Y-96135714D02*
X149557200Y-96183333D01*
X149557200Y-96183333D02*
X149604819Y-96278571D01*
X149604819Y-96278571D02*
X149604819Y-96469047D01*
X149604819Y-96469047D02*
X149557200Y-96564285D01*
X149557200Y-96564285D02*
X149509580Y-96611904D01*
X149509580Y-96611904D02*
X149414342Y-96659523D01*
X149414342Y-96659523D02*
X148604819Y-96659523D01*
X148700057Y-97088095D02*
X148652438Y-97135714D01*
X148652438Y-97135714D02*
X148604819Y-97230952D01*
X148604819Y-97230952D02*
X148604819Y-97469047D01*
X148604819Y-97469047D02*
X148652438Y-97564285D01*
X148652438Y-97564285D02*
X148700057Y-97611904D01*
X148700057Y-97611904D02*
X148795295Y-97659523D01*
X148795295Y-97659523D02*
X148890533Y-97659523D01*
X148890533Y-97659523D02*
X149033390Y-97611904D01*
X149033390Y-97611904D02*
X149604819Y-97040476D01*
X149604819Y-97040476D02*
X149604819Y-97659523D01*
X132004819Y-90857142D02*
X131528628Y-90523809D01*
X132004819Y-90285714D02*
X131004819Y-90285714D01*
X131004819Y-90285714D02*
X131004819Y-90666666D01*
X131004819Y-90666666D02*
X131052438Y-90761904D01*
X131052438Y-90761904D02*
X131100057Y-90809523D01*
X131100057Y-90809523D02*
X131195295Y-90857142D01*
X131195295Y-90857142D02*
X131338152Y-90857142D01*
X131338152Y-90857142D02*
X131433390Y-90809523D01*
X131433390Y-90809523D02*
X131481009Y-90761904D01*
X131481009Y-90761904D02*
X131528628Y-90666666D01*
X131528628Y-90666666D02*
X131528628Y-90285714D01*
X132004819Y-91809523D02*
X132004819Y-91238095D01*
X132004819Y-91523809D02*
X131004819Y-91523809D01*
X131004819Y-91523809D02*
X131147676Y-91428571D01*
X131147676Y-91428571D02*
X131242914Y-91333333D01*
X131242914Y-91333333D02*
X131290533Y-91238095D01*
X131338152Y-92666666D02*
X132004819Y-92666666D01*
X130957200Y-92428571D02*
X131671485Y-92190476D01*
X131671485Y-92190476D02*
X131671485Y-92809523D01*
X154866666Y-75109580D02*
X154914285Y-75157200D01*
X154914285Y-75157200D02*
X155057142Y-75204819D01*
X155057142Y-75204819D02*
X155152380Y-75204819D01*
X155152380Y-75204819D02*
X155295237Y-75157200D01*
X155295237Y-75157200D02*
X155390475Y-75061961D01*
X155390475Y-75061961D02*
X155438094Y-74966723D01*
X155438094Y-74966723D02*
X155485713Y-74776247D01*
X155485713Y-74776247D02*
X155485713Y-74633390D01*
X155485713Y-74633390D02*
X155438094Y-74442914D01*
X155438094Y-74442914D02*
X155390475Y-74347676D01*
X155390475Y-74347676D02*
X155295237Y-74252438D01*
X155295237Y-74252438D02*
X155152380Y-74204819D01*
X155152380Y-74204819D02*
X155057142Y-74204819D01*
X155057142Y-74204819D02*
X154914285Y-74252438D01*
X154914285Y-74252438D02*
X154866666Y-74300057D01*
X154009523Y-74538152D02*
X154009523Y-75204819D01*
X154247618Y-74157200D02*
X154485713Y-74871485D01*
X154485713Y-74871485D02*
X153866666Y-74871485D01*
X131766666Y-82804819D02*
X132242856Y-82804819D01*
X132242856Y-82804819D02*
X132242856Y-81804819D01*
X130909523Y-82804819D02*
X131480951Y-82804819D01*
X131195237Y-82804819D02*
X131195237Y-81804819D01*
X131195237Y-81804819D02*
X131290475Y-81947676D01*
X131290475Y-81947676D02*
X131385713Y-82042914D01*
X131385713Y-82042914D02*
X131480951Y-82090533D01*
X165259580Y-95433333D02*
X165307200Y-95385714D01*
X165307200Y-95385714D02*
X165354819Y-95242857D01*
X165354819Y-95242857D02*
X165354819Y-95147619D01*
X165354819Y-95147619D02*
X165307200Y-95004762D01*
X165307200Y-95004762D02*
X165211961Y-94909524D01*
X165211961Y-94909524D02*
X165116723Y-94861905D01*
X165116723Y-94861905D02*
X164926247Y-94814286D01*
X164926247Y-94814286D02*
X164783390Y-94814286D01*
X164783390Y-94814286D02*
X164592914Y-94861905D01*
X164592914Y-94861905D02*
X164497676Y-94909524D01*
X164497676Y-94909524D02*
X164402438Y-95004762D01*
X164402438Y-95004762D02*
X164354819Y-95147619D01*
X164354819Y-95147619D02*
X164354819Y-95242857D01*
X164354819Y-95242857D02*
X164402438Y-95385714D01*
X164402438Y-95385714D02*
X164450057Y-95433333D01*
X165354819Y-96385714D02*
X165354819Y-95814286D01*
X165354819Y-96100000D02*
X164354819Y-96100000D01*
X164354819Y-96100000D02*
X164497676Y-96004762D01*
X164497676Y-96004762D02*
X164592914Y-95909524D01*
X164592914Y-95909524D02*
X164640533Y-95814286D01*
X129011904Y-54004819D02*
X129011904Y-53004819D01*
X129011904Y-53481009D02*
X128440476Y-53481009D01*
X128440476Y-54004819D02*
X128440476Y-53004819D01*
X127440476Y-54004819D02*
X128011904Y-54004819D01*
X127726190Y-54004819D02*
X127726190Y-53004819D01*
X127726190Y-53004819D02*
X127821428Y-53147676D01*
X127821428Y-53147676D02*
X127916666Y-53242914D01*
X127916666Y-53242914D02*
X128011904Y-53290533D01*
%TO.C,R3*%
D12*
X157087258Y-96722500D02*
X156612742Y-96722500D01*
X157087258Y-95677500D02*
X156612742Y-95677500D01*
%TO.C,C6*%
X174150000Y-65240000D02*
X172900000Y-65240000D01*
X173525000Y-64615000D02*
X173525000Y-65865000D01*
X172660000Y-63504437D02*
X172660000Y-66490000D01*
X172660000Y-63504437D02*
X171595563Y-62440000D01*
X172660000Y-71895563D02*
X172660000Y-68910000D01*
X172660000Y-71895563D02*
X171595563Y-72960000D01*
X171595563Y-62440000D02*
X162140000Y-62440000D01*
X171595563Y-72960000D02*
X162140000Y-72960000D01*
X162140000Y-62440000D02*
X162140000Y-66490000D01*
X162140000Y-72960000D02*
X162140000Y-68910000D01*
%TO.C,C5*%
X145250000Y-65290000D02*
X144000000Y-65290000D01*
X144625000Y-64665000D02*
X144625000Y-65915000D01*
X143760000Y-63554437D02*
X143760000Y-66540000D01*
X143760000Y-63554437D02*
X142695563Y-62490000D01*
X143760000Y-71945563D02*
X143760000Y-68960000D01*
X143760000Y-71945563D02*
X142695563Y-73010000D01*
X142695563Y-62490000D02*
X133240000Y-62490000D01*
X142695563Y-73010000D02*
X133240000Y-73010000D01*
X133240000Y-62490000D02*
X133240000Y-66540000D01*
X133240000Y-73010000D02*
X133240000Y-68960000D01*
%TO.C,R1*%
X160927500Y-102787258D02*
X160927500Y-102312742D01*
X161972500Y-102787258D02*
X161972500Y-102312742D01*
%TO.C,R12*%
X139512742Y-90227500D02*
X139987258Y-90227500D01*
X139512742Y-91272500D02*
X139987258Y-91272500D01*
%TO.C,J5*%
X142750000Y-103340000D02*
X143250000Y-103340000D01*
X143000000Y-103840000D02*
X142750000Y-103340000D01*
X143250000Y-103340000D02*
X143000000Y-103840000D01*
%TO.C,R15*%
X142477500Y-99237258D02*
X142477500Y-98762742D01*
X143522500Y-99237258D02*
X143522500Y-98762742D01*
%TO.C,C25*%
X144240000Y-98609420D02*
X144240000Y-98890580D01*
X145260000Y-98609420D02*
X145260000Y-98890580D01*
%TO.C,U6*%
X127190000Y-93415000D02*
X127190000Y-95235000D01*
X127190000Y-95235000D02*
X127240000Y-95235000D01*
X127240000Y-93415000D02*
X127190000Y-93415000D01*
X128360000Y-95235000D02*
X129140000Y-95235000D01*
X130260000Y-95235000D02*
X130310000Y-95235000D01*
X130310000Y-93415000D02*
X130260000Y-93415000D01*
X130310000Y-95235000D02*
X130310000Y-93415000D01*
X127240000Y-92875000D02*
X126910000Y-92635000D01*
X126910000Y-93115000D01*
X127240000Y-92875000D01*
G36*
X127240000Y-92875000D02*
G01*
X126910000Y-93115000D01*
X126910000Y-92635000D01*
X127240000Y-92875000D01*
G37*
%TO.C,C23*%
X133890000Y-94709420D02*
X133890000Y-94990580D01*
X134910000Y-94709420D02*
X134910000Y-94990580D01*
%TO.C,R6*%
X154237258Y-88977500D02*
X153762742Y-88977500D01*
X154237258Y-90022500D02*
X153762742Y-90022500D01*
%TO.C,Q1*%
D13*
X136325000Y-91485000D02*
X136325000Y-88565000D01*
X136325000Y-88565000D02*
X136175000Y-88565000D01*
X136175000Y-91485000D02*
X136325000Y-91485000D01*
X136175000Y-88565000D02*
X136175000Y-91485000D01*
X134575000Y-91525000D02*
X135825000Y-91525000D01*
%TO.C,R9*%
D12*
X132977500Y-90262258D02*
X132977500Y-89787742D01*
X134022500Y-90262258D02*
X134022500Y-89787742D01*
%TO.C,C8*%
X137711252Y-81765000D02*
X137188748Y-81765000D01*
X137711252Y-83235000D02*
X137188748Y-83235000D01*
%TO.C,U5*%
X137390000Y-91965000D02*
X137390000Y-92015000D01*
X137390000Y-95035000D02*
X137390000Y-95085000D01*
X137390000Y-95085000D02*
X139210000Y-95085000D01*
X139210000Y-91965000D02*
X137390000Y-91965000D01*
X139210000Y-92015000D02*
X139210000Y-91965000D01*
X139210000Y-93915000D02*
X139210000Y-93135000D01*
X139210000Y-95085000D02*
X139210000Y-95035000D01*
X136850000Y-95035000D02*
X136610000Y-95365000D01*
X137090000Y-95365000D01*
X136850000Y-95035000D01*
G36*
X137090000Y-95365000D02*
G01*
X136610000Y-95365000D01*
X136850000Y-95035000D01*
X137090000Y-95365000D01*
G37*
%TO.C,C3*%
X149163748Y-71890000D02*
X150586252Y-71890000D01*
X149163748Y-73710000D02*
X150586252Y-73710000D01*
%TO.C,J3*%
X161250000Y-103340000D02*
X161750000Y-103340000D01*
X161500000Y-103840000D02*
X161250000Y-103340000D01*
X161750000Y-103340000D02*
X161500000Y-103840000D01*
%TO.C,U3*%
X151590000Y-90440000D02*
X151590000Y-90490000D01*
X151590000Y-93510000D02*
X151590000Y-93560000D01*
X151590000Y-93560000D02*
X153410000Y-93560000D01*
X153410000Y-90440000D02*
X151590000Y-90440000D01*
X153410000Y-90490000D02*
X153410000Y-90440000D01*
X153410000Y-92390000D02*
X153410000Y-91610000D01*
X153410000Y-93560000D02*
X153410000Y-93510000D01*
X151050000Y-93510000D02*
X150810000Y-93840000D01*
X151290000Y-93840000D01*
X151050000Y-93510000D01*
G36*
X151290000Y-93840000D02*
G01*
X150810000Y-93840000D01*
X151050000Y-93510000D01*
X151290000Y-93840000D01*
G37*
%TO.C,Q2*%
D13*
X137225000Y-96065000D02*
X137225000Y-98985000D01*
X137225000Y-98985000D02*
X137375000Y-98985000D01*
X137375000Y-96065000D02*
X137225000Y-96065000D01*
X137375000Y-98985000D02*
X137375000Y-96065000D01*
X138975000Y-96025000D02*
X137725000Y-96025000D01*
%TO.C,D2*%
D12*
X134890000Y-99500000D02*
X140700000Y-99500000D01*
X134890000Y-103800000D02*
X134890000Y-99500000D01*
X134890000Y-103800000D02*
X140700000Y-103800000D01*
%TO.C,C7*%
X139740580Y-76760000D02*
X139459420Y-76760000D01*
X139740580Y-75740000D02*
X139459420Y-75740000D01*
%TO.C,D1*%
X158400000Y-100940000D02*
X159670000Y-100940000D01*
X159700000Y-104060000D02*
X158400000Y-104060000D01*
X160050000Y-100990000D02*
X160290000Y-100660000D01*
X159810000Y-100660000D01*
X160050000Y-100990000D01*
G36*
X160050000Y-100990000D02*
G01*
X159810000Y-100660000D01*
X160290000Y-100660000D01*
X160050000Y-100990000D01*
G37*
%TO.C,R11*%
X134537258Y-93122500D02*
X134062742Y-93122500D01*
X134537258Y-92077500D02*
X134062742Y-92077500D01*
%TO.C,D3*%
X144740000Y-100440000D02*
X144740000Y-101440000D01*
X144740000Y-102560000D02*
X144740000Y-103560000D01*
X144740000Y-103560000D02*
X146260000Y-103560000D01*
X146260000Y-100440000D02*
X144740000Y-100440000D01*
X146260000Y-100490000D02*
X146260000Y-100440000D01*
X146260000Y-102390000D02*
X146260000Y-101610000D01*
X146260000Y-103560000D02*
X146260000Y-103510000D01*
X146800000Y-101620000D02*
X146560000Y-101950000D01*
X147040000Y-101950000D01*
X146800000Y-101620000D01*
G36*
X147040000Y-101950000D02*
G01*
X146560000Y-101950000D01*
X146800000Y-101620000D01*
X147040000Y-101950000D01*
G37*
%TO.C,R4*%
X151737258Y-99527500D02*
X151262742Y-99527500D01*
X151737258Y-100572500D02*
X151262742Y-100572500D01*
%TO.C,U4*%
X141950000Y-77490000D02*
X142190000Y-77160000D01*
X141710000Y-77160000D01*
X141950000Y-77490000D01*
G36*
X141950000Y-77490000D02*
G01*
X141710000Y-77160000D01*
X142190000Y-77160000D01*
X141950000Y-77490000D01*
G37*
X141410000Y-80560000D02*
X141410000Y-80510000D01*
X141410000Y-77490000D02*
X141410000Y-77440000D01*
X141410000Y-77440000D02*
X139590000Y-77440000D01*
X139590000Y-80560000D02*
X141410000Y-80560000D01*
X139590000Y-80510000D02*
X139590000Y-80560000D01*
X139590000Y-77440000D02*
X139590000Y-77490000D01*
%TO.C,C12*%
X126359420Y-98490000D02*
X126640580Y-98490000D01*
X126359420Y-99510000D02*
X126640580Y-99510000D01*
%TO.C,R13*%
X132022500Y-97512742D02*
X132022500Y-97987258D01*
X130977500Y-97512742D02*
X130977500Y-97987258D01*
%TO.C,C20*%
X153259420Y-93990000D02*
X153540580Y-93990000D01*
X153259420Y-95010000D02*
X153540580Y-95010000D01*
%TO.C,SW1*%
X171660000Y-98525000D02*
X172240000Y-98525000D01*
X172240000Y-87625000D02*
X172240000Y-88335000D01*
X172240000Y-87625000D02*
X177760000Y-87625000D01*
X172240000Y-99175000D02*
X172240000Y-98525000D01*
X172240000Y-99175000D02*
X177760000Y-99175000D01*
X177760000Y-87625000D02*
X177760000Y-88335000D01*
X177760000Y-99175000D02*
X177760000Y-98465000D01*
%TO.C,R5*%
X156987258Y-91377500D02*
X156512742Y-91377500D01*
X156987258Y-92422500D02*
X156512742Y-92422500D01*
%TO.C,C24*%
X149240580Y-102390000D02*
X148959420Y-102390000D01*
X149240580Y-103410000D02*
X148959420Y-103410000D01*
%TO.C,J4*%
X146530000Y-62230000D02*
X146530000Y-70770000D01*
X146530000Y-70770000D02*
X155600000Y-70770000D01*
X147500000Y-63050000D02*
X147500000Y-64951000D01*
X147501000Y-67150000D02*
X146530000Y-67150000D01*
X150300000Y-63050000D02*
X147500000Y-63050000D01*
X150300000Y-64951000D02*
X150300000Y-63050000D01*
X151000000Y-63050000D02*
X151000000Y-64951000D01*
X151001000Y-67150000D02*
X150299000Y-67150000D01*
X153800000Y-63050000D02*
X151000000Y-63050000D01*
X153800000Y-64951000D02*
X153800000Y-63050000D01*
X154120000Y-67150000D02*
X153799000Y-67150000D01*
X154500000Y-63050000D02*
X154500000Y-64270000D01*
X156200000Y-70770000D02*
X158270000Y-70770000D01*
X157300000Y-63050000D02*
X154500000Y-63050000D01*
X157300000Y-64270000D02*
X157300000Y-63050000D01*
X158270000Y-62230000D02*
X146530000Y-62230000D01*
X158270000Y-67150000D02*
X157680000Y-67150000D01*
X158270000Y-70770000D02*
X158270000Y-62230000D01*
X147908000Y-64572000D02*
G75*
G02*
X149892000Y-64572000I992000J122469D01*
G01*
X151408000Y-64572000D02*
G75*
G02*
X153392000Y-64572000I992000J122469D01*
G01*
X154916000Y-64270000D02*
G75*
G02*
X156884000Y-64270000I984000J-180400D01*
G01*
X155900000Y-70770000D02*
X155460000Y-71380000D01*
X156340000Y-71380000D01*
X155900000Y-70770000D01*
G36*
X156340000Y-71380000D02*
G01*
X155460000Y-71380000D01*
X155900000Y-70770000D01*
X156340000Y-71380000D01*
G37*
%TO.C,C9*%
X140738748Y-81765000D02*
X141261252Y-81765000D01*
X140738748Y-83235000D02*
X141261252Y-83235000D01*
%TO.C,U1*%
X158940000Y-98090000D02*
X158940000Y-99910000D01*
X158940000Y-99910000D02*
X158990000Y-99910000D01*
X158990000Y-98090000D02*
X158940000Y-98090000D01*
X160110000Y-99910000D02*
X160890000Y-99910000D01*
X162010000Y-99910000D02*
X162060000Y-99910000D01*
X162060000Y-98090000D02*
X162010000Y-98090000D01*
X162060000Y-99910000D02*
X162060000Y-98090000D01*
X158990000Y-97550000D02*
X158660000Y-97310000D01*
X158660000Y-97790000D01*
X158990000Y-97550000D01*
G36*
X158990000Y-97550000D02*
G01*
X158660000Y-97790000D01*
X158660000Y-97310000D01*
X158990000Y-97550000D01*
G37*
%TO.C,R2*%
X162727500Y-99062258D02*
X162727500Y-98587742D01*
X163772500Y-99062258D02*
X163772500Y-98587742D01*
%TO.C,R10*%
X139527500Y-97762258D02*
X139527500Y-97287742D01*
X140572500Y-97762258D02*
X140572500Y-97287742D01*
%TO.C,U2*%
X151340000Y-95940000D02*
X151340000Y-95990000D01*
X151340000Y-99010000D02*
X151340000Y-99060000D01*
X151340000Y-99060000D02*
X153160000Y-99060000D01*
X153160000Y-95940000D02*
X151340000Y-95940000D01*
X153160000Y-95990000D02*
X153160000Y-95940000D01*
X153160000Y-97890000D02*
X153160000Y-97110000D01*
X153160000Y-99060000D02*
X153160000Y-99010000D01*
X150800000Y-99010000D02*
X150560000Y-99340000D01*
X151040000Y-99340000D01*
X150800000Y-99010000D01*
G36*
X151040000Y-99340000D02*
G01*
X150560000Y-99340000D01*
X150800000Y-99010000D01*
X151040000Y-99340000D01*
G37*
%TO.C,R14*%
X130977500Y-94262742D02*
X130977500Y-94737258D01*
X132022500Y-94262742D02*
X132022500Y-94737258D01*
%TO.C,C4*%
X153938748Y-71890000D02*
X155361252Y-71890000D01*
X153938748Y-73710000D02*
X155361252Y-73710000D01*
%TO.C,L1*%
X130000000Y-73800000D02*
X130000000Y-76100000D01*
X130000000Y-78900000D02*
X130000000Y-81200000D01*
X130000000Y-81200000D02*
X137400000Y-81200000D01*
X137400000Y-73800000D02*
X130000000Y-73800000D01*
X137400000Y-76100000D02*
X137400000Y-73800000D01*
X137400000Y-81200000D02*
X137400000Y-78900000D01*
%TO.C,C1*%
X164290000Y-98940580D02*
X164290000Y-98659420D01*
X165310000Y-98940580D02*
X165310000Y-98659420D01*
%TD*%
M02*
